<svg width="33" height="34" viewBox="0 0 33 34" fill="none" xmlns="http://www.w3.org/2000/svg">
<path d="M19.3153 3.8819C19.3153 2.84233 18.4957 2 17.4842 2H15.3762C14.3633 2 13.5437 2.84233 13.5437 3.8819C13.5437 4.73906 12.9723 5.47462 12.1946 5.78901C12.0714 5.84042 11.9498 5.89282 11.8295 5.94621C11.0633 6.2873 10.1529 6.18349 9.56128 5.57695C9.21775 5.22467 8.75228 5.02684 8.267 5.02684C7.78172 5.02684 7.31626 5.22467 6.97272 5.57695L5.48076 7.11035C5.13801 7.46343 4.94552 7.94182 4.94552 8.44058C4.94552 8.93934 5.13801 9.41774 5.48076 9.77082C6.07235 10.3788 6.17335 11.3131 5.8386 12.1021C5.78602 12.2262 5.73551 12.3513 5.6871 12.4773C5.3812 13.2766 4.66552 13.8638 3.83153 13.8638C2.82006 13.8638 2.00049 14.7062 2.00049 15.7457V17.9139C2.00049 18.9534 2.82006 19.7958 3.83153 19.7958C4.66552 19.7958 5.3812 20.383 5.6871 21.1823C5.73712 21.3089 5.78762 21.434 5.8386 21.5575C6.17191 22.345 6.07091 23.2808 5.48076 23.8888C5.13801 24.2419 4.94552 24.7203 4.94552 25.219C4.94552 25.7178 5.13801 26.1962 5.48076 26.5493L6.97272 28.0827C7.31626 28.4349 7.78172 28.6328 8.267 28.6328C8.75228 28.6328 9.21775 28.4349 9.56128 28.0827C10.1529 27.4746 11.0619 27.3708 11.8295 27.7134C11.9498 27.7678 12.0714 27.8202 12.1946 27.8706C12.9723 28.185 13.5437 28.9205 13.5437 29.7777C13.5437 30.8173 14.3633 31.6596 15.3747 31.6596H17.4842C18.4957 31.6596 19.3153 30.8173 19.3153 29.7777C19.3153 28.9205 19.8867 28.185 20.6644 27.8691C20.7875 27.8197 20.9092 27.7683 21.0294 27.7149C21.7956 27.3708 22.7061 27.4761 23.2962 28.0827C23.6398 28.4354 24.1056 28.6335 24.5912 28.6335C25.0769 28.6335 25.5427 28.4354 25.8863 28.0827L27.3782 26.5493C27.721 26.1962 27.9135 25.7178 27.9135 25.219C27.9135 24.7203 27.721 24.2419 27.3782 23.8888C26.7866 23.2808 26.6856 22.3465 27.0189 21.5575C27.0718 21.434 27.1228 21.3089 27.1719 21.1823C27.4778 20.383 28.1934 19.7958 29.0274 19.7958C30.0389 19.7958 30.8585 18.9534 30.8585 17.9139V15.7472C30.8585 14.7077 30.0389 13.8653 29.0274 13.8653C28.1934 13.8653 27.4778 13.2781 27.1704 12.4787C27.122 12.3528 27.0715 12.2277 27.0189 12.1035C26.6871 11.3161 26.7881 10.3803 27.3782 9.7723C27.721 9.41922 27.9135 8.94083 27.9135 8.44207C27.9135 7.94331 27.721 7.46491 27.3782 7.11183L25.8863 5.57843C25.5427 5.22616 25.0772 5.02832 24.592 5.02832C24.1067 5.02832 23.6412 5.22616 23.2977 5.57843C22.7061 6.18645 21.7971 6.29026 21.0294 5.94769C20.9086 5.89315 20.7869 5.84075 20.6644 5.7905C19.8867 5.47462 19.3153 4.73758 19.3153 3.8819Z" stroke="#777777" stroke-width="3.5"/>
<path d="M22.2009 16.8304C22.2009 18.4036 21.5928 19.9124 20.5105 21.0249C19.4281 22.1373 17.96 22.7623 16.4293 22.7623C14.8986 22.7623 13.4306 22.1373 12.3482 21.0249C11.2658 19.9124 10.6577 18.4036 10.6577 16.8304C10.6577 15.2571 11.2658 13.7483 12.3482 12.6359C13.4306 11.5234 14.8986 10.8984 16.4293 10.8984C17.96 10.8984 19.4281 11.5234 20.5105 12.6359C21.5928 13.7483 22.2009 15.2571 22.2009 16.8304Z" stroke="#777777" stroke-width="3.5"/>
</svg>
