<svg width="27" height="32" viewBox="0 0 27 32" fill="none" xmlns="http://www.w3.org/2000/svg">
<path fill-rule="evenodd" clip-rule="evenodd" d="M18.3319 0C18.5507 -4.84295e-09 18.7675 0.0452653 18.9697 0.133211C19.1719 0.221157 19.3556 0.350061 19.5104 0.512563C19.6651 0.675066 19.7879 0.867984 19.8717 1.0803C19.9554 1.29262 19.9985 1.52019 19.9985 1.75C19.9985 1.97981 19.9554 2.20738 19.8717 2.4197C19.7879 2.63202 19.6651 2.82493 19.5104 2.98744C19.3556 3.14994 19.1719 3.27884 18.9697 3.36679C18.7675 3.45474 18.5507 3.5 18.3319 3.5H3.33187V26.25C3.33187 26.7141 3.50746 27.1593 3.82002 27.4874C4.13259 27.8156 4.55651 28 4.99854 28H18.3319C18.7739 28 19.1978 28.1844 19.5104 28.5126C19.8229 28.8408 19.9985 29.2859 19.9985 29.75C19.9985 30.2141 19.8229 30.6593 19.5104 30.9874C19.1978 31.3156 18.7739 31.5 18.3319 31.5H4.99854C3.67245 31.5 2.40068 30.9469 1.463 29.9623C0.52532 28.9777 -0.00146484 27.6424 -0.00146484 26.25V1.75C-0.00146484 1.28587 0.17413 0.840752 0.486691 0.512563C0.799251 0.184375 1.22317 0 1.6652 0H18.3319ZM21.1769 9.26275C20.9439 9.01819 20.6471 8.85161 20.324 8.78406C20.0009 8.71651 19.666 8.75102 19.3615 8.88323C19.0571 9.01543 18.7968 9.23941 18.6136 9.52686C18.4303 9.81431 18.3323 10.1523 18.3319 10.4983V13.9983H8.33187C7.88984 13.9983 7.46592 14.1826 7.15336 14.5108C6.8408 14.839 6.6652 15.2841 6.6652 15.7483C6.6652 16.2124 6.8408 16.6575 7.15336 16.9857C7.46592 17.3139 7.88984 17.4983 8.33187 17.4983H18.3319V20.9983C18.3319 21.3443 18.4297 21.6826 18.6129 21.9703C18.796 22.258 19.0563 22.4823 19.3608 22.6147C19.6653 22.7471 20.0003 22.7818 20.3236 22.7143C20.6468 22.6468 20.9438 22.4802 21.1769 22.2355L26.1769 16.9855C26.4893 16.6573 26.6648 16.2123 26.6648 15.7483C26.6648 15.2842 26.4893 14.8392 26.1769 14.511L21.1769 9.26275Z" fill="#777777"/>
</svg>
