<svg width="79" height="68" viewBox="0 0 79 68" fill="none" xmlns="http://www.w3.org/2000/svg">
<path d="M59.7778 65C59.7778 58.1564 50.6974 52.6096 39.5 52.6096C28.3026 52.6096 19.2222 58.1564 19.2222 65M76 52.6096C76 47.5295 70.9954 43.164 63.8333 41.2517M3 52.6096C3 47.5295 8.00456 43.164 15.1667 41.2517M63.8333 24.6734C65.0348 23.5917 66.0145 22.2787 66.716 20.81C67.4174 19.3414 67.8269 17.746 67.9207 16.1156C68.0146 14.4852 67.791 12.852 67.2629 11.3099C66.7347 9.76782 65.9124 8.34728 64.8433 7.12999C63.7741 5.9127 62.4792 4.92268 61.033 4.21686C59.5868 3.51103 58.0179 3.10334 56.4164 3.01723C54.8149 2.93112 53.2126 3.16829 51.7014 3.7151C50.1903 4.26191 48.8002 5.10756 47.6111 6.20343M15.1667 24.6734C12.7832 22.4768 11.3502 19.4088 11.1807 16.1397C11.0113 12.8706 12.119 9.66602 14.2621 7.22601C16.4052 4.786 19.4094 3.30886 22.6184 3.11726C25.8274 2.92566 28.9805 4.03517 31.3889 6.20343M39.5 40.2192C36.2732 40.2192 33.1786 38.9138 30.8969 36.5901C28.6152 34.2665 27.3333 31.1149 27.3333 27.8288C27.3333 24.5427 28.6152 21.3911 30.8969 19.0675C33.1786 16.7438 36.2732 15.4384 39.5 15.4384C42.7268 15.4384 45.8214 16.7438 48.1031 19.0675C50.3848 21.3911 51.6667 24.5427 51.6667 27.8288C51.6667 31.1149 50.3848 34.2665 48.1031 36.5901C45.8214 38.9138 42.7268 40.2192 39.5 40.2192Z" stroke="#E8E8E8" stroke-opacity="0.5" stroke-width="6" stroke-linecap="round" stroke-linejoin="round"/>
</svg>
