<svg width="32" height="35" viewBox="0 0 32 35" fill="none" xmlns="http://www.w3.org/2000/svg">
<path d="M8.66667 7.76741e-09C7.39132 -7.10362e-05 6.16414 0.487209 5.23623 1.36214C4.30832 2.23707 3.74982 3.43351 3.675 4.70667L3.66667 5V21.6667H2.41667C1.33834 21.6667 0.450001 22.4867 0.343334 23.5367L0.333336 23.75V26.6667C0.333263 27.942 0.820543 29.1692 1.69547 30.0971C2.5704 31.025 3.76685 31.5835 5.04 31.6583L5.33334 31.6667H22C23.2754 31.6667 24.5025 31.1795 25.4304 30.3045C26.3583 29.4296 26.9168 28.2332 26.9917 26.96L27 26.6667V10H29.9167C30.4324 10.0002 30.9299 9.80915 31.3129 9.46371C31.6959 9.11828 31.9372 8.64305 31.99 8.13L32 7.91667V5C32.0001 3.72465 31.5128 2.49748 30.6379 1.56957C29.7629 0.641655 28.5665 0.0831541 27.2933 0.00833353L27 7.76741e-09H8.66667ZM8.66667 3.33333H23.6667V26.6667C23.6667 27.1087 23.4911 27.5326 23.1785 27.8452C22.866 28.1577 22.442 28.3333 22 28.3333C21.558 28.3333 21.1341 28.1577 20.8215 27.8452C20.5089 27.5326 20.3333 27.1087 20.3333 26.6667V23.75C20.3333 22.6 19.4 21.6667 18.25 21.6667H7V5C7 4.55797 7.17559 4.13405 7.48816 3.82149C7.80072 3.50893 8.22464 3.33333 8.66667 3.33333ZM3.66667 25H17V26.6667C17 27.25 17.1 27.8117 17.2833 28.3333H5.33334C4.89131 28.3333 4.46738 28.1577 4.15482 27.8452C3.84226 27.5326 3.66667 27.1087 3.66667 26.6667V25ZM12.6667 15C12.2246 15 11.8007 15.1756 11.4882 15.4882C11.1756 15.8007 11 16.2246 11 16.6667C11 17.1087 11.1756 17.5326 11.4882 17.8452C11.8007 18.1577 12.2246 18.3333 12.6667 18.3333H16C16.442 18.3333 16.866 18.1577 17.1785 17.8452C17.4911 17.5326 17.6667 17.1087 17.6667 16.6667C17.6667 16.2246 17.4911 15.8007 17.1785 15.4882C16.866 15.1756 16.442 15 16 15H12.6667ZM12 8.33333C11.558 8.33333 11.1341 8.50893 10.8215 8.82149C10.5089 9.13405 10.3333 9.55797 10.3333 10C10.3333 10.442 10.5089 10.866 10.8215 11.1785C11.1341 11.4911 11.558 11.6667 12 11.6667H18.6667C19.1087 11.6667 19.5326 11.4911 19.8452 11.1785C20.1577 10.866 20.3333 10.442 20.3333 10C20.3333 9.55797 20.1577 9.13405 19.8452 8.82149C19.5326 8.50893 19.1087 8.33333 18.6667 8.33333H12ZM27 3.33333C27.4082 3.33339 27.8022 3.48326 28.1073 3.75453C28.4123 4.02579 28.6072 4.39958 28.655 4.805L28.6667 5V6.66667H27V3.33333Z" fill="#777777"/>
</svg>
