<svg width="28" height="35" viewBox="0 0 28 35" fill="none" xmlns="http://www.w3.org/2000/svg">
<path d="M3.5 3.5H0L0 0L28 0V3.5H24.5V7C24.5 9.82625 23.072 12.1012 21.273 13.9598C20.0428 15.2303 18.5465 16.401 17.0292 17.5C18.5465 18.599 20.0428 19.7697 21.273 21.0402C23.072 22.8987 24.5 25.1737 24.5 28V31.5H28V35H0L0 31.5H3.5V28C3.5 25.1737 4.928 22.8987 6.727 21.0402C7.95725 19.7697 9.4535 18.599 10.9707 17.5C9.4535 16.401 7.95725 15.2303 6.727 13.9598C4.928 12.1012 3.5 9.82625 3.5 7V3.5ZM7 3.5V7C7 8.19875 7.455 9.33625 8.34925 10.5H19.6507C20.5432 9.33625 21 8.19875 21 7V3.5H7ZM14 19.6385C12.1713 20.93 10.514 22.1602 9.24175 23.4745C8.9255 23.7995 8.62754 24.1419 8.34925 24.5H19.6507C19.3725 24.1419 19.0745 23.7995 18.7582 23.4745C17.486 22.1602 15.8287 20.93 14 19.6385Z" fill="#FBFBFF"/>
</svg>
