<svg width="19" height="19" viewBox="0 0 19 19" fill="none" xmlns="http://www.w3.org/2000/svg">
<path d="M1.692 11.016C1.212 11.016 0.803996 10.86 0.467996 10.548C0.155996 10.212 -4.09782e-06 9.792 -4.09782e-06 9.288C-4.09782e-06 8.808 0.155996 8.424 0.467996 8.136C0.803996 7.824 1.212 7.668 1.692 7.668L16.416 7.668C16.896 7.668 17.292 7.824 17.604 8.136C17.94 8.448 18.108 8.856 18.108 9.36C18.108 9.816 17.94 10.212 17.604 10.548C17.292 10.86 16.896 11.016 16.416 11.016L1.692 11.016ZM9 18.288C8.448 18.288 7.98 18.108 7.596 17.748C7.236 17.388 7.056 16.92 7.056 16.344L7.056 1.908C7.056 1.356 7.248 0.899999 7.632 0.54C8.016 0.18 8.484 2.38419e-07 9.036 2.38419e-07C9.612 2.38419e-07 10.068 0.18 10.404 0.54C10.764 0.899999 10.944 1.356 10.944 1.908L10.944 16.344C10.944 16.92 10.764 17.388 10.404 17.748C10.044 18.108 9.576 18.288 9 18.288Z" fill="#FBFBFF"/>
</svg>
