<svg width="197" height="94" viewBox="0 0 197 94" fill="none" xmlns="http://www.w3.org/2000/svg">
<path d="M77.2308 21.2305L70.6006 34.1803L40.2453 93.6222L9.88993 34.0521L3.25977 21.2305H17.7645L24.3947 34.1803L40.2453 65.2606L56.0958 34.1803L62.726 21.2305H77.2308Z" fill="#860909"/>
<path d="M138.035 57.32C138.035 74.4612 124.09 88.4066 106.948 88.4066C89.8055 88.4066 75.8613 74.4612 75.8613 57.32C75.8613 40.1788 89.8067 26.2334 106.948 26.2334C124.089 26.2334 138.035 40.1775 138.035 57.32ZM126.932 57.32C126.932 46.3061 117.962 37.3359 106.948 37.3359C95.934 37.3359 86.9638 46.3061 86.9638 57.32C86.9638 68.334 95.9379 77.3042 106.948 77.3042C117.958 77.3042 126.932 68.3327 126.932 57.32Z" fill="#B20000"/>
<path d="M134.65 88.4955H134.827L134.65 88.6725V88.4955ZM197.001 26.3223L172.93 57.4974L196.912 88.4955H182.878L165.914 66.5574L148.95 88.4955H134.916L158.809 57.4974L134.739 26.3223H148.773L165.826 48.4387L182.878 26.3223H197.001ZM196.824 88.6725L196.734 88.4955H196.824V88.6725Z" fill="#B20000"/>
<path d="M39.4473 91.3484L23.3042 21.6085C23.2876 21.5059 23.2367 21.412 23.1598 21.3421C23.0829 21.2722 22.9846 21.2304 22.8809 21.2236H0.452711C0.0973402 21.2236 -0.107929 21.6868 0.087076 22.0344" fill="#B20000"/>
<path d="M40.9957 3.07261L48.9498 8.64308L39.8308 21.6686H37.1969L31.0132 17.3362L40.9957 3.07261ZM40.5607 0.00513281C40.4652 0.00511556 40.3711 0.0279923 40.2862 0.0718456C40.2019 0.116748 40.1294 0.180924 40.0745 0.259152L28.0484 17.4324C28.0024 17.4956 27.97 17.5677 27.9534 17.6441C27.9374 17.7211 27.9374 17.8006 27.9534 17.8776C27.9662 17.955 27.9945 18.0289 28.0366 18.0951C28.0787 18.1612 28.1338 18.2182 28.1985 18.2625L36.4554 24.0356H41.0739L51.9121 8.54686C51.9575 8.48302 51.9897 8.41077 52.0069 8.33434C52.0241 8.25791 52.0259 8.17882 52.0122 8.10169C51.9985 8.02447 51.9697 7.95072 51.9274 7.88467C51.8851 7.81862 51.8302 7.76158 51.7658 7.71681L40.8994 0.107767C40.8 0.0384869 40.6819 0.000917001 40.5607 0V0.00513281Z" fill="#B20000"/>
<path d="M52.9393 21.2241H27.0498C26.9681 21.2195 26.8878 21.2474 26.8265 21.3018C26.7653 21.3561 26.7279 21.4324 26.7227 21.5141V23.7656C26.7279 23.8473 26.7653 23.9236 26.8265 23.9779C26.8878 24.0322 26.9681 24.0601 27.0498 24.0555H52.9393C53.0209 24.0601 53.101 24.0322 53.162 23.9778C53.2231 23.9235 53.2602 23.8472 53.2651 23.7656V21.5141C53.2602 21.4325 53.2231 21.3562 53.162 21.3018C53.101 21.2475 53.0209 21.2196 52.9393 21.2241Z" fill="#860909"/>
<path d="M40.2821 93.6325L23.078 21.5666C23.0643 21.4774 23.0206 21.3955 22.9541 21.3344C22.8877 21.2734 22.8024 21.2367 22.7124 21.2305H0.379177C0.0776894 21.2305 -0.103204 21.6372 0.0635764 21.9425L40.1846 93.6851C40.2179 93.7479 40.2975 93.7043 40.2821 93.6325Z" fill="#B20000"/>
<path d="M40.1546 93.6325L57.079 21.5666C57.0918 21.4781 57.1344 21.3966 57.1997 21.3356C57.2649 21.2745 57.3491 21.2374 57.4382 21.2305H79.4083C79.706 21.2305 79.8843 21.6372 79.7201 21.9425L40.2547 93.6851C40.2175 93.7479 40.1379 93.7043 40.1546 93.6325Z" fill="#B20000"/>
<path d="M39.5986 4.04423L39.9386 7.42603L40.5364 13.3788L34.7363 14.8529L31.443 15.6906L35.5202 9.86744L39.5973 4.04423M40.6237 0.121038L34.3668 9.05791L28.1074 17.9909L35.0853 16.2167L42.0618 14.4436L41.3421 7.28106L40.6224 0.117188L40.6237 0.121038Z" fill="#B20000"/>
</svg>
