<svg width="650" height="355" viewBox="0 0 650 355" fill="none" xmlns="http://www.w3.org/2000/svg">
<path d="M455.428 183.493C455.428 238.365 409.42 283.008 352.86 283.008C296.3 283.008 250.293 238.365 250.293 183.493C250.293 128.62 296.305 83.9783 352.86 83.9783C409.416 83.9783 455.428 128.616 455.428 183.493ZM418.796 183.493C418.796 148.235 389.2 119.52 352.86 119.52C316.521 119.52 286.924 148.235 286.924 183.493C286.924 218.751 316.534 247.466 352.86 247.466C389.187 247.466 418.796 218.747 418.796 183.493Z" fill="#860909"/>
<path d="M444.281 283.291H444.865L444.281 283.858V283.291ZM650 84.2615L570.582 184.06L649.708 283.291H603.404L547.433 213.063L491.461 283.291H445.157L523.991 184.06L444.573 84.2615H490.877L547.141 155.061L603.404 84.2615H650ZM649.416 283.858L649.12 283.291H649.416V283.858Z" fill="#B20000"/>
<path d="M130.157 292.425L76.8944 69.1727C76.8395 68.8443 76.6715 68.5437 76.4178 68.3199C76.1641 68.0961 75.8397 67.9624 75.4975 67.9407H1.49798C0.325469 67.9407 -0.351798 69.4233 0.291603 70.5362" fill="#B20000"/>
<path d="M254.795 67.9609L232.919 109.416L132.765 299.702L32.61 109.005L10.7344 67.9609H58.5915L80.4671 109.416L132.765 208.91L185.062 109.416L206.938 67.9609H254.795Z" fill="#860909"/>
<path d="M132.907 299.735L76.1437 69.0369C76.0983 68.7514 75.9541 68.4893 75.7349 68.2938C75.5157 68.0982 75.2344 67.9809 74.9373 67.9609H1.25106C0.256329 67.9609 -0.340513 69.2628 0.209764 70.2403L132.585 299.903C132.695 300.104 132.958 299.965 132.907 299.735Z" fill="#B20000"/>
<path d="M132.494 299.735L188.334 69.0369C188.377 68.7537 188.517 68.4929 188.732 68.2973C188.948 68.1018 189.225 67.9831 189.519 67.9609H262.008C262.99 67.9609 263.578 69.2628 263.036 70.2403L132.824 299.903C132.701 300.104 132.439 299.965 132.494 299.735Z" fill="#B20000"/>
<path d="M135.284 9.83607L161.528 27.6683L131.441 69.3658H122.751L102.348 55.4968L135.284 9.83607ZM133.849 0.0164312C133.534 0.016376 133.223 0.0896091 132.943 0.229993C132.665 0.373736 132.426 0.579175 132.245 0.829599L92.5658 55.8048C92.414 56.0071 92.3073 56.2379 92.2525 56.4824C92.1997 56.7289 92.1997 56.9833 92.2525 57.2299C92.2946 57.4775 92.388 57.7144 92.5269 57.9261C92.6659 58.1378 92.8475 58.3201 93.061 58.4619L120.304 76.943H135.542L171.302 27.3603C171.452 27.1559 171.558 26.9246 171.615 26.6799C171.671 26.4353 171.677 26.1821 171.632 25.9352C171.587 25.688 171.492 25.4519 171.352 25.2405C171.213 25.029 171.032 24.8464 170.819 24.7031L134.967 0.344986C134.639 0.123205 134.249 0.00293551 133.849 0V0.0164312Z" fill="#B20000"/>
<path d="M130.666 12.949L131.788 23.7748L133.76 42.8309L114.623 47.5497L103.757 50.2315L117.21 31.5902L130.662 12.949M134.048 0.390012L113.404 28.9988L92.752 57.5952L115.775 51.9154L138.793 46.2396L136.419 23.3107L134.044 0.377686L134.048 0.390012Z" fill="#B20000"/>
<path d="M174.646 67.94H89.2259C88.9562 67.9254 88.6914 68.0147 88.4893 68.1885C88.2871 68.3624 88.1639 68.6067 88.1465 68.8682V76.0758C88.1639 76.3374 88.2871 76.5816 88.4893 76.7555C88.6914 76.9293 88.9562 77.0186 89.2259 77.004H174.646C174.915 77.0186 175.179 76.9291 175.381 76.7552C175.582 76.5813 175.705 76.337 175.721 76.0758V68.8682C175.705 68.607 175.582 68.3627 175.381 68.1888C175.179 68.0149 174.915 67.9254 174.646 67.94Z" fill="#860909"/>
<path d="M267.9 349.36C267.78 349.187 267.727 349.007 267.74 348.82C267.753 348.62 267.867 348.447 268.08 348.3C268.213 348.207 268.367 348.167 268.54 348.18C268.727 348.193 268.893 348.28 269.04 348.44C269.413 348.88 269.84 349.233 270.32 349.5C270.8 349.753 271.387 349.88 272.08 349.88C272.4 349.867 272.72 349.813 273.04 349.72C273.36 349.627 273.627 349.467 273.84 349.24C274.067 349 274.18 348.687 274.18 348.3C274.18 347.927 274.067 347.633 273.84 347.42C273.613 347.193 273.32 347.013 272.96 346.88C272.6 346.733 272.207 346.607 271.78 346.5C271.34 346.38 270.907 346.247 270.48 346.1C270.053 345.94 269.667 345.747 269.32 345.52C268.987 345.28 268.713 344.987 268.5 344.64C268.3 344.28 268.2 343.847 268.2 343.34C268.2 342.74 268.36 342.22 268.68 341.78C269.013 341.34 269.453 341 270 340.76C270.56 340.52 271.167 340.4 271.82 340.4C272.193 340.4 272.58 340.447 272.98 340.54C273.393 340.62 273.793 340.767 274.18 340.98C274.567 341.18 274.907 341.46 275.2 341.82C275.32 341.953 275.387 342.12 275.4 342.32C275.413 342.52 275.327 342.7 275.14 342.86C274.993 342.967 274.827 343.013 274.64 343C274.467 342.987 274.32 342.92 274.2 342.8C273.92 342.467 273.567 342.213 273.14 342.04C272.727 341.853 272.267 341.76 271.76 341.76C271.44 341.76 271.127 341.807 270.82 341.9C270.513 341.993 270.253 342.153 270.04 342.38C269.84 342.593 269.74 342.893 269.74 343.28C269.753 343.64 269.873 343.933 270.1 344.16C270.327 344.387 270.633 344.573 271.02 344.72C271.407 344.853 271.833 344.987 272.3 345.12C272.727 345.227 273.133 345.353 273.52 345.5C273.92 345.633 274.28 345.813 274.6 346.04C274.92 346.267 275.173 346.56 275.36 346.92C275.547 347.267 275.64 347.707 275.64 348.24C275.64 348.853 275.467 349.387 275.12 349.84C274.773 350.28 274.313 350.62 273.74 350.86C273.18 351.087 272.573 351.2 271.92 351.2C271.187 351.2 270.46 351.06 269.74 350.78C269.033 350.5 268.42 350.027 267.9 349.36ZM282.733 351.2C281.666 351.2 280.733 350.973 279.933 350.52C279.133 350.067 278.506 349.447 278.053 348.66C277.613 347.86 277.393 346.94 277.393 345.9C277.393 344.74 277.619 343.753 278.073 342.94C278.539 342.113 279.139 341.487 279.873 341.06C280.619 340.62 281.406 340.4 282.233 340.4C282.846 340.4 283.439 340.513 284.013 340.74C284.586 340.967 285.093 341.3 285.533 341.74C285.973 342.167 286.326 342.687 286.593 343.3C286.859 343.9 286.999 344.573 287.013 345.32C287.013 345.533 286.933 345.713 286.773 345.86C286.613 346.007 286.426 346.08 286.213 346.08H278.313L277.953 344.7H285.653L285.333 344.98V344.54C285.279 343.993 285.093 343.527 284.773 343.14C284.466 342.74 284.086 342.433 283.633 342.22C283.193 342.007 282.726 341.9 282.233 341.9C281.833 341.9 281.433 341.973 281.033 342.12C280.646 342.253 280.293 342.48 279.973 342.8C279.666 343.107 279.413 343.507 279.213 344C279.026 344.493 278.933 345.087 278.933 345.78C278.933 346.553 279.086 347.233 279.393 347.82C279.713 348.407 280.153 348.873 280.713 349.22C281.273 349.553 281.926 349.72 282.673 349.72C283.139 349.72 283.546 349.66 283.893 349.54C284.239 349.42 284.539 349.273 284.793 349.1C285.046 348.913 285.259 348.727 285.433 348.54C285.606 348.42 285.773 348.36 285.933 348.36C286.133 348.36 286.293 348.427 286.413 348.56C286.546 348.693 286.613 348.853 286.613 349.04C286.613 349.267 286.506 349.467 286.293 349.64C285.919 350.053 285.413 350.42 284.773 350.74C284.133 351.047 283.453 351.2 282.733 351.2ZM291.298 351.68C291.298 352.36 291.144 352.94 290.838 353.42C290.544 353.9 290.171 354.273 289.718 354.54C289.264 354.807 288.791 354.94 288.298 354.94C288.071 354.94 287.891 354.867 287.757 354.72C287.611 354.573 287.537 354.4 287.537 354.2V354.06C287.537 353.86 287.604 353.7 287.737 353.58C287.871 353.46 288.038 353.373 288.238 353.32C288.544 353.24 288.804 353.113 289.018 352.94C289.231 352.78 289.398 352.56 289.518 352.28C289.638 352.013 289.698 351.693 289.698 351.32V341.46C289.698 341.233 289.771 341.04 289.918 340.88C290.078 340.72 290.271 340.64 290.498 340.64C290.738 340.64 290.931 340.72 291.078 340.88C291.224 341.04 291.298 341.233 291.298 341.46V351.68ZM290.498 339.16C290.164 339.16 289.918 339.093 289.758 338.96C289.598 338.827 289.518 338.62 289.518 338.34V338.06C289.518 337.78 289.604 337.573 289.778 337.44C289.951 337.307 290.198 337.24 290.518 337.24C290.838 337.24 291.078 337.307 291.238 337.44C291.398 337.573 291.478 337.78 291.478 338.06V338.34C291.478 338.62 291.391 338.827 291.218 338.96C291.058 339.093 290.818 339.16 290.498 339.16ZM303.387 340.56C303.613 340.56 303.8 340.64 303.947 340.8C304.107 340.947 304.187 341.133 304.187 341.36V350.18C304.187 350.407 304.107 350.6 303.947 350.76C303.8 350.92 303.613 351 303.387 351C303.147 351 302.953 350.92 302.807 350.76C302.66 350.6 302.587 350.407 302.587 350.18V348.28L302.967 348.24C302.967 348.533 302.867 348.853 302.667 349.2C302.467 349.547 302.193 349.873 301.847 350.18C301.5 350.473 301.087 350.72 300.607 350.92C300.14 351.107 299.633 351.2 299.087 351.2C298.18 351.2 297.367 350.967 296.647 350.5C295.927 350.02 295.353 349.373 294.927 348.56C294.513 347.747 294.307 346.82 294.307 345.78C294.307 344.727 294.513 343.8 294.927 343C295.353 342.187 295.927 341.553 296.647 341.1C297.367 340.633 298.167 340.4 299.047 340.4C299.62 340.4 300.153 340.493 300.647 340.68C301.14 340.867 301.567 341.12 301.927 341.44C302.3 341.76 302.587 342.113 302.787 342.5C303 342.887 303.107 343.273 303.107 343.66L302.587 343.54V341.36C302.587 341.133 302.66 340.947 302.807 340.8C302.953 340.64 303.147 340.56 303.387 340.56ZM299.267 349.72C299.933 349.72 300.52 349.547 301.027 349.2C301.547 348.853 301.947 348.387 302.227 347.8C302.52 347.2 302.667 346.527 302.667 345.78C302.667 345.047 302.52 344.387 302.227 343.8C301.947 343.2 301.547 342.733 301.027 342.4C300.52 342.053 299.933 341.88 299.267 341.88C298.613 341.88 298.027 342.047 297.507 342.38C297 342.713 296.6 343.173 296.307 343.76C296.013 344.347 295.867 345.02 295.867 345.78C295.867 346.527 296.007 347.2 296.287 347.8C296.58 348.387 296.98 348.853 297.487 349.2C298.007 349.547 298.6 349.72 299.267 349.72ZM317.76 340.4C318.666 340.4 319.48 340.633 320.2 341.1C320.92 341.553 321.486 342.18 321.9 342.98C322.326 343.78 322.54 344.707 322.54 345.76C322.54 346.813 322.326 347.747 321.9 348.56C321.486 349.373 320.92 350.02 320.2 350.5C319.493 350.967 318.693 351.2 317.8 351.2C317.306 351.2 316.84 351.127 316.4 350.98C315.973 350.82 315.58 350.613 315.22 350.36C314.873 350.093 314.58 349.807 314.34 349.5C314.1 349.18 313.926 348.867 313.82 348.56L314.26 348.28V350.28C314.26 350.507 314.186 350.7 314.04 350.86C313.893 351.02 313.7 351.1 313.46 351.1C313.233 351.1 313.04 351.027 312.88 350.88C312.733 350.72 312.66 350.52 312.66 350.28V337.02C312.66 336.793 312.733 336.6 312.88 336.44C313.04 336.28 313.233 336.2 313.46 336.2C313.7 336.2 313.893 336.28 314.04 336.44C314.186 336.6 314.26 336.793 314.26 337.02V343.18L313.96 343.02C314.053 342.687 314.213 342.367 314.44 342.06C314.68 341.74 314.966 341.46 315.3 341.22C315.646 340.967 316.026 340.767 316.44 340.62C316.866 340.473 317.306 340.4 317.76 340.4ZM317.58 341.88C316.913 341.88 316.32 342.047 315.8 342.38C315.293 342.713 314.893 343.173 314.6 343.76C314.32 344.347 314.18 345.013 314.18 345.76C314.18 346.507 314.32 347.18 314.6 347.78C314.893 348.38 315.293 348.853 315.8 349.2C316.32 349.547 316.913 349.72 317.58 349.72C318.246 349.72 318.833 349.547 319.34 349.2C319.846 348.853 320.246 348.38 320.54 347.78C320.833 347.18 320.98 346.507 320.98 345.76C320.98 345.013 320.833 344.347 320.54 343.76C320.246 343.173 319.846 342.713 319.34 342.38C318.833 342.047 318.246 341.88 317.58 341.88ZM329.725 351.2C328.658 351.2 327.725 350.973 326.925 350.52C326.125 350.067 325.498 349.447 325.045 348.66C324.605 347.86 324.385 346.94 324.385 345.9C324.385 344.74 324.612 343.753 325.065 342.94C325.532 342.113 326.132 341.487 326.865 341.06C327.612 340.62 328.398 340.4 329.225 340.4C329.838 340.4 330.432 340.513 331.005 340.74C331.578 340.967 332.085 341.3 332.525 341.74C332.965 342.167 333.318 342.687 333.585 343.3C333.852 343.9 333.992 344.573 334.005 345.32C334.005 345.533 333.925 345.713 333.765 345.86C333.605 346.007 333.418 346.08 333.205 346.08H325.305L324.945 344.7H332.645L332.325 344.98V344.54C332.272 343.993 332.085 343.527 331.765 343.14C331.458 342.74 331.078 342.433 330.625 342.22C330.185 342.007 329.718 341.9 329.225 341.9C328.825 341.9 328.425 341.973 328.025 342.12C327.638 342.253 327.285 342.48 326.965 342.8C326.658 343.107 326.405 343.507 326.205 344C326.018 344.493 325.925 345.087 325.925 345.78C325.925 346.553 326.078 347.233 326.385 347.82C326.705 348.407 327.145 348.873 327.705 349.22C328.265 349.553 328.918 349.72 329.665 349.72C330.132 349.72 330.538 349.66 330.885 349.54C331.232 349.42 331.532 349.273 331.785 349.1C332.038 348.913 332.252 348.727 332.425 348.54C332.598 348.42 332.765 348.36 332.925 348.36C333.125 348.36 333.285 348.427 333.405 348.56C333.538 348.693 333.605 348.853 333.605 349.04C333.605 349.267 333.498 349.467 333.285 349.64C332.912 350.053 332.405 350.42 331.765 350.74C331.125 351.047 330.445 351.2 329.725 351.2ZM341.35 340.5C342.256 340.5 342.99 340.733 343.55 341.2C344.123 341.653 344.503 342.3 344.69 343.14H344.39L344.53 342.78C344.69 342.407 344.963 342.047 345.35 341.7C345.736 341.353 346.183 341.067 346.69 340.84C347.196 340.613 347.723 340.5 348.27 340.5C349.15 340.5 349.843 340.693 350.35 341.08C350.856 341.453 351.216 341.96 351.43 342.6C351.656 343.227 351.77 343.933 351.77 344.72V350.18C351.77 350.407 351.69 350.6 351.53 350.76C351.383 350.92 351.196 351 350.97 351C350.73 351 350.536 350.92 350.39 350.76C350.243 350.6 350.17 350.407 350.17 350.18V344.76C350.17 344.24 350.09 343.773 349.93 343.36C349.783 342.933 349.536 342.6 349.19 342.36C348.856 342.107 348.396 341.98 347.81 341.98C347.263 341.98 346.763 342.107 346.31 342.36C345.856 342.6 345.496 342.933 345.23 343.36C344.963 343.773 344.83 344.24 344.83 344.76V350.18C344.83 350.407 344.756 350.6 344.61 350.76C344.463 350.92 344.27 351 344.03 351C343.803 351 343.61 350.92 343.45 350.76C343.303 350.6 343.23 350.407 343.23 350.18V344.7C343.23 344.193 343.156 343.74 343.01 343.34C342.876 342.927 342.643 342.6 342.31 342.36C341.976 342.107 341.516 341.98 340.93 341.98C340.396 341.98 339.91 342.107 339.47 342.36C339.03 342.6 338.676 342.927 338.41 343.34C338.143 343.74 338.01 344.193 338.01 344.7V350.18C338.01 350.407 337.93 350.6 337.77 350.76C337.623 350.92 337.436 351 337.21 351C336.983 351 336.79 350.92 336.63 350.76C336.483 350.6 336.41 350.407 336.41 350.18V341.46C336.41 341.233 336.483 341.047 336.63 340.9C336.79 340.74 336.983 340.66 337.21 340.66C337.45 340.66 337.643 340.74 337.79 340.9C337.936 341.047 338.01 341.233 338.01 341.46V342.98L337.57 343.46C337.623 343.113 337.756 342.767 337.97 342.42C338.196 342.073 338.483 341.753 338.83 341.46C339.176 341.167 339.563 340.933 339.99 340.76C340.416 340.587 340.87 340.5 341.35 340.5ZM360.238 340.48C360.398 340.48 360.551 340.527 360.698 340.62C360.844 340.7 360.951 340.82 361.018 340.98L364.338 348.78L364.018 348.94L367.398 341C367.544 340.64 367.791 340.467 368.138 340.48C368.338 340.48 368.511 340.547 368.658 340.68C368.804 340.813 368.878 340.98 368.878 341.18C368.878 341.26 368.864 341.34 368.838 341.42C368.824 341.487 368.804 341.547 368.778 341.6L364.918 350.48C364.771 350.813 364.538 350.987 364.218 351C364.044 351.013 363.878 350.98 363.718 350.9C363.571 350.807 363.464 350.667 363.398 350.48L359.538 341.62C359.511 341.567 359.484 341.507 359.458 341.44C359.444 341.373 359.438 341.293 359.438 341.2C359.438 341.027 359.504 340.867 359.638 340.72C359.784 340.56 359.984 340.48 360.238 340.48ZM372.579 350.18C372.579 350.407 372.499 350.6 372.339 350.76C372.192 350.92 372.005 351 371.779 351C371.539 351 371.345 350.92 371.199 350.76C371.052 350.6 370.979 350.407 370.979 350.18V341.3C370.979 341.073 371.052 340.887 371.199 340.74C371.359 340.58 371.552 340.5 371.779 340.5C372.005 340.5 372.192 340.58 372.339 340.74C372.499 340.887 372.579 341.073 372.579 341.3V350.18ZM371.779 339.16C371.445 339.16 371.199 339.093 371.039 338.96C370.879 338.827 370.799 338.62 370.799 338.34V338.06C370.799 337.78 370.885 337.573 371.059 337.44C371.232 337.307 371.479 337.24 371.799 337.24C372.119 337.24 372.359 337.307 372.519 337.44C372.679 337.573 372.759 337.78 372.759 338.06V338.34C372.759 338.62 372.672 338.827 372.499 338.96C372.339 339.093 372.099 339.16 371.779 339.16ZM380.593 340.4C381.499 340.4 382.213 340.587 382.733 340.96C383.253 341.333 383.619 341.833 383.833 342.46C384.059 343.087 384.173 343.787 384.173 344.56V350.18C384.173 350.407 384.093 350.6 383.933 350.76C383.786 350.92 383.599 351 383.373 351C383.146 351 382.953 350.92 382.793 350.76C382.646 350.6 382.573 350.407 382.573 350.18V344.6C382.573 344.093 382.493 343.64 382.333 343.24C382.186 342.827 381.933 342.5 381.573 342.26C381.226 342.007 380.746 341.88 380.133 341.88C379.573 341.88 379.059 342.007 378.593 342.26C378.126 342.5 377.753 342.827 377.473 343.24C377.193 343.64 377.053 344.093 377.053 344.6V350.18C377.053 350.407 376.973 350.6 376.813 350.76C376.666 350.92 376.479 351 376.253 351C376.026 351 375.833 350.92 375.673 350.76C375.526 350.6 375.453 350.407 375.453 350.18V341.46C375.453 341.233 375.526 341.047 375.673 340.9C375.833 340.74 376.026 340.66 376.253 340.66C376.493 340.66 376.686 340.74 376.833 340.9C376.979 341.047 377.053 341.233 377.053 341.46V342.88L376.653 343.32C376.719 342.973 376.873 342.627 377.113 342.28C377.353 341.92 377.653 341.6 378.013 341.32C378.373 341.04 378.773 340.82 379.213 340.66C379.653 340.487 380.113 340.4 380.593 340.4ZM395.652 336.2C395.879 336.2 396.066 336.28 396.212 336.44C396.372 336.587 396.452 336.773 396.452 337V350.18C396.452 350.407 396.372 350.6 396.212 350.76C396.066 350.92 395.879 351 395.652 351C395.412 351 395.219 350.92 395.072 350.76C394.926 350.6 394.852 350.407 394.852 350.18V348.28L395.232 348.14C395.232 348.46 395.132 348.8 394.932 349.16C394.732 349.507 394.459 349.833 394.112 350.14C393.766 350.447 393.352 350.7 392.872 350.9C392.406 351.1 391.899 351.2 391.352 351.2C390.459 351.2 389.646 350.967 388.912 350.5C388.192 350.033 387.619 349.393 387.192 348.58C386.779 347.767 386.572 346.84 386.572 345.8C386.572 344.747 386.779 343.813 387.192 343C387.619 342.187 388.192 341.553 388.912 341.1C389.632 340.633 390.432 340.4 391.312 340.4C391.872 340.4 392.399 340.493 392.892 340.68C393.386 340.867 393.812 341.12 394.172 341.44C394.546 341.76 394.839 342.113 395.052 342.5C395.266 342.887 395.372 343.273 395.372 343.66L394.852 343.54V337C394.852 336.773 394.926 336.587 395.072 336.44C395.219 336.28 395.412 336.2 395.652 336.2ZM391.532 349.72C392.199 349.72 392.786 349.553 393.292 349.22C393.812 348.873 394.212 348.407 394.492 347.82C394.786 347.22 394.932 346.547 394.932 345.8C394.932 345.04 394.786 344.367 394.492 343.78C394.212 343.193 393.812 342.733 393.292 342.4C392.786 342.053 392.199 341.88 391.532 341.88C390.879 341.88 390.292 342.053 389.772 342.4C389.266 342.733 388.866 343.193 388.572 343.78C388.279 344.367 388.132 345.04 388.132 345.8C388.132 346.533 388.279 347.2 388.572 347.8C388.866 348.387 389.266 348.853 389.772 349.2C390.292 349.547 390.879 349.72 391.532 349.72ZM409.237 345.8C409.237 346.84 409.004 347.767 408.538 348.58C408.084 349.393 407.464 350.033 406.678 350.5C405.904 350.967 405.031 351.2 404.058 351.2C403.084 351.2 402.204 350.967 401.418 350.5C400.631 350.033 400.004 349.393 399.538 348.58C399.084 347.767 398.858 346.84 398.858 345.8C398.858 344.76 399.084 343.833 399.538 343.02C400.004 342.207 400.631 341.567 401.418 341.1C402.204 340.633 403.084 340.4 404.058 340.4C405.031 340.4 405.904 340.633 406.678 341.1C407.464 341.567 408.084 342.207 408.538 343.02C409.004 343.833 409.237 344.76 409.237 345.8ZM407.638 345.8C407.638 345.027 407.478 344.347 407.158 343.76C406.851 343.173 406.424 342.713 405.878 342.38C405.344 342.047 404.738 341.88 404.058 341.88C403.378 341.88 402.764 342.047 402.218 342.38C401.684 342.713 401.258 343.173 400.938 343.76C400.618 344.347 400.458 345.027 400.458 345.8C400.458 346.56 400.618 347.233 400.938 347.82C401.258 348.407 401.684 348.873 402.218 349.22C402.764 349.553 403.378 349.72 404.058 349.72C404.738 349.72 405.344 349.553 405.878 349.22C406.424 348.873 406.851 348.407 407.158 347.82C407.478 347.233 407.638 346.56 407.638 345.8ZM416.404 354.76C416.271 354.76 416.144 354.727 416.024 354.66C414.931 354.047 414.017 353.28 413.284 352.36C412.551 351.453 411.997 350.44 411.624 349.32C411.251 348.2 411.064 347.04 411.064 345.84C411.064 344.64 411.257 343.493 411.644 342.4C412.031 341.307 412.591 340.3 413.324 339.38C414.071 338.46 414.971 337.673 416.024 337.02C416.144 336.953 416.271 336.92 416.404 336.92C416.617 336.92 416.784 337 416.904 337.16C417.024 337.307 417.084 337.46 417.084 337.62C417.084 337.847 416.977 338.04 416.764 338.2C415.884 338.76 415.137 339.447 414.524 340.26C413.924 341.073 413.464 341.96 413.144 342.92C412.837 343.867 412.684 344.84 412.684 345.84C412.684 346.84 412.831 347.827 413.124 348.8C413.431 349.773 413.884 350.66 414.484 351.46C415.097 352.273 415.857 352.953 416.764 353.5C416.964 353.62 417.064 353.807 417.064 354.06C417.064 354.233 417.004 354.393 416.884 354.54C416.764 354.687 416.604 354.76 416.404 354.76ZM427.527 340.56C427.754 340.56 427.941 340.64 428.087 340.8C428.247 340.947 428.327 341.133 428.327 341.36V350.18C428.327 350.407 428.247 350.6 428.087 350.76C427.941 350.92 427.754 351 427.527 351C427.287 351 427.094 350.92 426.947 350.76C426.801 350.6 426.727 350.407 426.727 350.18V348.28L427.107 348.24C427.107 348.533 427.007 348.853 426.807 349.2C426.607 349.547 426.334 349.873 425.987 350.18C425.641 350.473 425.227 350.72 424.747 350.92C424.281 351.107 423.774 351.2 423.227 351.2C422.321 351.2 421.507 350.967 420.787 350.5C420.067 350.02 419.494 349.373 419.067 348.56C418.654 347.747 418.447 346.82 418.447 345.78C418.447 344.727 418.654 343.8 419.067 343C419.494 342.187 420.067 341.553 420.787 341.1C421.507 340.633 422.307 340.4 423.187 340.4C423.761 340.4 424.294 340.493 424.787 340.68C425.281 340.867 425.707 341.12 426.067 341.44C426.441 341.76 426.727 342.113 426.927 342.5C427.141 342.887 427.247 343.273 427.247 343.66L426.727 343.54V341.36C426.727 341.133 426.801 340.947 426.947 340.8C427.094 340.64 427.287 340.56 427.527 340.56ZM423.407 349.72C424.074 349.72 424.661 349.547 425.167 349.2C425.687 348.853 426.087 348.387 426.367 347.8C426.661 347.2 426.807 346.527 426.807 345.78C426.807 345.047 426.661 344.387 426.367 343.8C426.087 343.2 425.687 342.733 425.167 342.4C424.661 342.053 424.074 341.88 423.407 341.88C422.754 341.88 422.167 342.047 421.647 342.38C421.141 342.713 420.741 343.173 420.447 343.76C420.154 344.347 420.007 345.02 420.007 345.78C420.007 346.527 420.147 347.2 420.427 347.8C420.721 348.387 421.121 348.853 421.627 349.2C422.147 349.547 422.741 349.72 423.407 349.72ZM430.953 354.76C430.739 354.76 430.573 354.68 430.453 354.52C430.333 354.36 430.273 354.2 430.273 354.04C430.273 353.813 430.373 353.627 430.573 353.48C431.466 352.907 432.213 352.213 432.813 351.4C433.426 350.6 433.886 349.72 434.193 348.76C434.513 347.8 434.673 346.82 434.673 345.82C434.673 344.82 434.519 343.84 434.213 342.88C433.919 341.907 433.466 341.013 432.853 340.2C432.253 339.387 431.493 338.713 430.573 338.18C430.373 338.047 430.273 337.853 430.273 337.6C430.273 337.427 430.333 337.267 430.453 337.12C430.586 336.973 430.753 336.9 430.953 336.9C431.086 336.9 431.213 336.94 431.333 337.02C432.426 337.62 433.333 338.38 434.053 339.3C434.786 340.22 435.339 341.24 435.713 342.36C436.086 343.467 436.273 344.62 436.273 345.82C436.273 347.02 436.079 348.173 435.692 349.28C435.319 350.373 434.759 351.38 434.013 352.3C433.279 353.22 432.379 354 431.313 354.64C431.206 354.72 431.086 354.76 430.953 354.76Z" fill="#777777"/>
</svg>
