<svg width="622" height="731" viewBox="0 0 622 731" fill="none" xmlns="http://www.w3.org/2000/svg">
<path d="M601.967 165.5L550.277 266.44L313.677 729.77L77.0667 265.44L25.3867 165.5H138.437L190.127 266.44L313.677 508.7L437.227 266.44L488.907 165.5H601.967Z" fill="#860909"/>
<path d="M307.516 712.05L181.686 168.45C181.556 167.649 181.158 166.916 180.557 166.371C179.955 165.825 179.186 165.501 178.376 165.45H3.56634C0.796343 165.45 -0.803643 169.06 0.706357 171.77" fill="#B20000"/>
<path d="M319.617 23.97L381.617 67.39L310.537 168.92H290.017L241.777 135.15L319.617 23.97ZM316.227 0.0599976C315.482 0.0606775 314.748 0.243194 314.089 0.591721C313.431 0.940247 312.867 1.44425 312.447 2.06L218.697 135.9C218.347 136.397 218.095 136.958 217.957 137.55C217.842 138.151 217.842 138.769 217.957 139.37C218.061 139.973 218.285 140.549 218.614 141.064C218.944 141.579 219.373 142.023 219.877 142.37L284.227 187.37H320.227L404.777 66.62C405.306 65.8689 405.601 64.978 405.624 64.0597C405.647 63.1414 405.398 62.2367 404.907 61.46C404.578 60.9444 404.15 60.4991 403.647 60.15L318.947 0.839996C318.168 0.300878 317.245 0.00824003 316.297 0L316.227 0.0599976Z" fill="#B20000"/>
<path d="M412.608 165.45H210.808C210.171 165.414 209.545 165.632 209.068 166.055C208.59 166.478 208.299 167.073 208.258 167.71V185.26C208.299 185.897 208.59 186.492 209.068 186.915C209.545 187.338 210.171 187.556 210.808 187.52H412.608C413.245 187.556 413.87 187.338 414.348 186.915C414.826 186.492 415.117 185.897 415.158 185.26V167.71C415.117 167.073 414.826 166.478 414.348 166.055C413.87 165.632 413.245 165.414 412.608 165.45Z" fill="#860909"/>
<path d="M313.967 729.85L179.907 168.12C179.798 167.425 179.457 166.788 178.94 166.312C178.422 165.837 177.759 165.55 177.057 165.5H2.96731C0.607306 165.5 -0.802664 168.67 0.497336 171.05L313.237 730.26C313.507 730.75 314.127 730.41 313.967 729.85Z" fill="#B20000"/>
<path d="M313.037 729.85L444.967 168.12C445.07 167.429 445.403 166.794 445.914 166.318C446.424 165.842 447.082 165.554 447.778 165.5H618.967C621.287 165.5 622.668 168.67 621.388 171.05L313.777 730.26C313.517 730.75 312.907 730.41 313.037 729.85Z" fill="#B20000"/>
<path d="M308.716 31.5507L311.357 57.9107L316.026 104.311L270.816 115.801L245.146 122.331L276.966 76.9407L308.747 31.5507M316.747 0.970703L267.966 70.6307L219.146 140.261L273.526 126.431L327.966 112.641L322.357 56.8107L316.747 0.970703Z" fill="#B20000"/>
</svg>
