<svg width="52" height="52" viewBox="0 0 52 52" fill="none" xmlns="http://www.w3.org/2000/svg">
<path fill-rule="evenodd" clip-rule="evenodd" d="M9.29615 2.13675C9.29615 1.57005 9.21392 0.881488 9.6146 0.480769C10.0153 0.0800505 10.8661 0 11.4327 0H13.5693C14.136 0 14.9827 0.0800505 15.3834 0.480769C15.784 0.881488 15.7059 1.57005 15.7059 2.13675V9.29487H22.8634C23.4301 9.29487 24.9998 9.29487 24.9998 9.29487C24.9998 9.29487 25 10.8649 25 11.4316V13.5684C25 14.1351 24.9998 15.7051 24.9998 15.7051C24.9998 15.7051 23.4301 15.7051 22.8634 15.7051H15.7059V22.8632C15.7059 23.43 15.784 24.1185 15.3834 24.5192C14.9827 24.9199 14.136 25 13.5693 25H11.4327C10.8661 25 10.0153 24.9199 9.6146 24.5192C9.21392 24.1185 9.29615 23.43 9.29615 22.8632V15.7051H2.13862C1.57196 15.7051 0.00218365 15.7051 0.00218365 15.7051C0.00218365 15.7051 0.00203775 14.1351 0.00203775 13.5684V11.4316C0.00203775 10.8649 -0.00215623 9.29487 0.00148937 9.29487C0.00148937 9.29487 1.57196 9.29487 2.13862 9.29487H9.29615V2.13675Z" fill="#B20000"/>
<path d="M38.3252 10.8193C41.1829 6.14855 48.4996 8.1317 48.5 13.7178V43C48.5 46.0376 46.0376 48.5 43 48.5H13.7178C8.04299 48.4996 6.0864 40.9486 11.0469 38.1924L28.4971 28.4971L38.1924 11.0469L38.3252 10.8193Z" stroke="#B20000" stroke-width="7"/>
</svg>
