<svg width="50" height="51" viewBox="0 0 50 51" fill="none" xmlns="http://www.w3.org/2000/svg">
<path fill-rule="evenodd" clip-rule="evenodd" d="M9.29615 2.13675C9.29615 1.57005 9.21392 0.881488 9.6146 0.480769C10.0153 0.0800505 10.8661 0 11.4327 0H13.5693C14.136 0 14.9827 0.0800505 15.3834 0.480769C15.784 0.881488 15.7059 1.57005 15.7059 2.13675V9.29487H22.8634C23.4301 9.29487 24.9998 9.29487 24.9998 9.29487C24.9998 9.29487 25 10.8649 25 11.4316V13.5684C25 14.1351 24.9998 15.7051 24.9998 15.7051C24.9998 15.7051 23.4301 15.7051 22.8634 15.7051H15.7059V22.8632C15.7059 23.43 15.784 24.1185 15.3834 24.5192C14.9827 24.9199 14.136 25 13.5693 25H11.4327C10.8661 25 10.0153 24.9199 9.6146 24.5192C9.21392 24.1185 9.29615 23.43 9.29615 22.8632V15.7051H2.13862C1.57196 15.7051 0.00218365 15.7051 0.00218365 15.7051C0.00218365 15.7051 0.00203775 14.1351 0.00203775 13.5684V11.4316C0.00203775 10.8649 -0.00215623 9.29487 0.00148937 9.29487C0.00148937 9.29487 1.57196 9.29487 2.13862 9.29487H9.29615V2.13675Z" fill="#B20000"/>
<mask id="path-2-outside-1_506_2" maskUnits="userSpaceOnUse" x="16" y="10" width="34" height="41" fill="black">
<rect fill="white" x="16" y="10" width="34" height="41"/>
<path d="M33.0231 21.2533C34.0322 21.2533 35.0187 20.9526 35.8577 20.3893C36.6968 19.826 37.3507 19.0253 37.7369 18.0885C38.1231 17.1517 38.2241 16.1209 38.0272 15.1265C37.8304 14.132 37.3444 13.2185 36.6309 12.5016C35.9173 11.7846 35.0082 11.2963 34.0185 11.0985C33.0287 10.9007 32.0029 11.0022 31.0706 11.3902C30.1383 11.7783 29.3414 12.4354 28.7808 13.2784C28.2201 14.1215 27.9209 15.1127 27.9209 16.1266C27.9209 17.4863 28.4585 18.7903 29.4153 19.7517C30.3721 20.7131 31.6699 21.2533 33.0231 21.2533ZM33.0231 13.0507C33.6286 13.0507 34.2204 13.2311 34.7239 13.5691C35.2273 13.907 35.6197 14.3874 35.8514 14.9495C36.0831 15.5116 36.1437 16.13 36.0256 16.7267C35.9074 17.3234 35.6159 17.8715 35.1878 18.3017C34.7596 18.7319 34.2141 19.0248 33.6203 19.1435C33.0265 19.2622 32.411 19.2013 31.8516 18.9685C31.2922 18.7357 30.8141 18.3414 30.4777 17.8356C30.1413 17.3297 29.9618 16.735 29.9618 16.1266C29.9618 15.3108 30.2843 14.5284 30.8584 13.9516C31.4325 13.3747 32.2112 13.0507 33.0231 13.0507ZM48.1391 32.4327L40.4502 23.673C39.9714 23.1274 39.3826 22.6904 38.7228 22.3911C38.063 22.0917 37.3474 21.9369 36.6235 21.9368H29.4226C28.6989 21.9367 27.9833 22.0913 27.3236 22.3903C26.6638 22.6894 26.0749 23.126 25.596 23.6713L17.907 32.4327C17.6214 32.7171 17.3942 33.0552 17.2386 33.4277C17.083 33.8002 17.0019 34.1999 17 34.6039C16.9962 35.4198 17.3151 36.2039 17.8866 36.7835C18.4581 37.3632 19.2354 37.691 20.0474 37.6949C20.8595 37.6987 21.6398 37.3783 22.2167 36.804L25.8069 33.9109L22.7235 45.6765C22.3993 46.4167 22.3783 47.2553 22.6649 48.0109C22.9515 48.7666 23.5227 49.3784 24.2549 49.714C24.9871 50.0496 25.8214 50.082 26.5772 49.8042C27.333 49.5264 27.9495 48.9607 28.2934 48.2296L33.0231 40.0509L37.7528 48.2381C38.0966 48.9693 38.7132 49.535 39.469 49.8128C40.2248 50.0906 41.059 50.0582 41.7912 49.7226C42.5234 49.3869 43.0946 48.7751 43.3813 48.0195C43.6679 47.2639 43.6468 46.4252 43.3227 45.6851L40.2393 33.916L43.8295 36.804C44.4099 37.3584 45.1834 37.6622 45.9841 37.6503C46.7847 37.6384 47.5489 37.3117 48.1127 36.7403C48.6765 36.1689 48.995 35.3982 48.9999 34.5936C49.0049 33.789 48.6959 33.0145 48.1391 32.4362V32.4327ZM46.6714 35.3071C46.5766 35.4024 46.4641 35.478 46.3402 35.5296C46.2163 35.5812 46.0836 35.6078 45.9495 35.6078C45.8154 35.6078 45.6826 35.5812 45.5587 35.5296C45.4348 35.478 45.3223 35.4024 45.2275 35.3071C45.2018 35.2798 45.1739 35.2546 45.1442 35.2319L39.1049 30.365C38.9375 30.23 38.732 30.1514 38.5176 30.1406C38.3033 30.1297 38.0909 30.187 37.9108 30.3043C37.7308 30.4217 37.5921 30.5931 37.5145 30.7942C37.437 30.9953 37.4246 31.2159 37.479 31.4245L41.3685 46.2798C41.3857 46.3381 41.4067 46.3952 41.4315 46.4507C41.5458 46.6972 41.558 46.9793 41.4653 47.2349C41.3727 47.4905 41.1828 47.6986 40.9374 47.8135C40.692 47.9284 40.4113 47.9406 40.1569 47.8475C39.9026 47.7544 39.6954 47.5636 39.5811 47.3171C39.5688 47.2888 39.5546 47.2614 39.5386 47.235L33.9058 37.4876C33.8161 37.3322 33.6873 37.2033 33.5324 37.1136C33.3775 37.0239 33.2019 36.9768 33.0231 36.9768C32.8443 36.9768 32.6687 37.0239 32.5138 37.1136C32.3589 37.2033 32.2301 37.3322 32.1404 37.4876L26.5076 47.2367C26.4916 47.2631 26.4774 47.2905 26.4651 47.3188C26.3507 47.5653 26.1436 47.7561 25.8892 47.8492C25.6349 47.9423 25.3541 47.9301 25.1087 47.8152C24.8634 47.7003 24.6735 47.4922 24.5808 47.2366C24.4882 46.981 24.5003 46.6989 24.6147 46.4524C24.6394 46.3969 24.6604 46.3398 24.6776 46.2815L28.5672 31.4262C28.6208 31.2184 28.6081 30.9989 28.5309 30.7986C28.4537 30.5984 28.3159 30.4276 28.1369 30.3103C27.9716 30.201 27.7786 30.1417 27.5808 30.1394C27.3482 30.1392 27.1226 30.2188 26.9413 30.365L20.902 35.2319C20.8722 35.2546 20.8443 35.2798 20.8187 35.3071C20.6272 35.4995 20.3675 35.6075 20.0967 35.6075C19.8259 35.6075 19.5662 35.4995 19.3747 35.3071C19.1833 35.1147 19.0757 34.8537 19.0757 34.5817C19.0757 34.3096 19.1833 34.0486 19.3747 33.8562L19.419 33.8101L27.1267 25.0282C27.414 24.701 27.7673 24.439 28.1632 24.2596C28.5591 24.0801 28.9884 23.9874 29.4226 23.9875H36.6235C37.0578 23.9874 37.4871 24.0801 37.883 24.2596C38.2788 24.439 38.6322 24.701 38.9195 25.0282L46.6289 33.8101L46.6731 33.8562C46.7679 33.9516 46.843 34.0647 46.8942 34.1893C46.9454 34.3138 46.9717 34.4473 46.9715 34.582C46.9714 34.7168 46.9448 34.8501 46.8933 34.9746C46.8418 35.099 46.7664 35.212 46.6714 35.3071Z"/>
</mask>
<path d="M33.0231 21.2533C34.0322 21.2533 35.0187 20.9526 35.8577 20.3893C36.6968 19.826 37.3507 19.0253 37.7369 18.0885C38.1231 17.1517 38.2241 16.1209 38.0272 15.1265C37.8304 14.132 37.3444 13.2185 36.6309 12.5016C35.9173 11.7846 35.0082 11.2963 34.0185 11.0985C33.0287 10.9007 32.0029 11.0022 31.0706 11.3902C30.1383 11.7783 29.3414 12.4354 28.7808 13.2784C28.2201 14.1215 27.9209 15.1127 27.9209 16.1266C27.9209 17.4863 28.4585 18.7903 29.4153 19.7517C30.3721 20.7131 31.6699 21.2533 33.0231 21.2533ZM33.0231 13.0507C33.6286 13.0507 34.2204 13.2311 34.7239 13.5691C35.2273 13.907 35.6197 14.3874 35.8514 14.9495C36.0831 15.5116 36.1437 16.13 36.0256 16.7267C35.9074 17.3234 35.6159 17.8715 35.1878 18.3017C34.7596 18.7319 34.2141 19.0248 33.6203 19.1435C33.0265 19.2622 32.411 19.2013 31.8516 18.9685C31.2922 18.7357 30.8141 18.3414 30.4777 17.8356C30.1413 17.3297 29.9618 16.735 29.9618 16.1266C29.9618 15.3108 30.2843 14.5284 30.8584 13.9516C31.4325 13.3747 32.2112 13.0507 33.0231 13.0507ZM48.1391 32.4327L40.4502 23.673C39.9714 23.1274 39.3826 22.6904 38.7228 22.3911C38.063 22.0917 37.3474 21.9369 36.6235 21.9368H29.4226C28.6989 21.9367 27.9833 22.0913 27.3236 22.3903C26.6638 22.6894 26.0749 23.126 25.596 23.6713L17.907 32.4327C17.6214 32.7171 17.3942 33.0552 17.2386 33.4277C17.083 33.8002 17.0019 34.1999 17 34.6039C16.9962 35.4198 17.3151 36.2039 17.8866 36.7835C18.4581 37.3632 19.2354 37.691 20.0474 37.6949C20.8595 37.6987 21.6398 37.3783 22.2167 36.804L25.8069 33.9109L22.7235 45.6765C22.3993 46.4167 22.3783 47.2553 22.6649 48.0109C22.9515 48.7666 23.5227 49.3784 24.2549 49.714C24.9871 50.0496 25.8214 50.082 26.5772 49.8042C27.333 49.5264 27.9495 48.9607 28.2934 48.2296L33.0231 40.0509L37.7528 48.2381C38.0966 48.9693 38.7132 49.535 39.469 49.8128C40.2248 50.0906 41.059 50.0582 41.7912 49.7226C42.5234 49.3869 43.0946 48.7751 43.3813 48.0195C43.6679 47.2639 43.6468 46.4252 43.3227 45.6851L40.2393 33.916L43.8295 36.804C44.4099 37.3584 45.1834 37.6622 45.9841 37.6503C46.7847 37.6384 47.5489 37.3117 48.1127 36.7403C48.6765 36.1689 48.995 35.3982 48.9999 34.5936C49.0049 33.789 48.6959 33.0145 48.1391 32.4362V32.4327ZM46.6714 35.3071C46.5766 35.4024 46.4641 35.478 46.3402 35.5296C46.2163 35.5812 46.0836 35.6078 45.9495 35.6078C45.8154 35.6078 45.6826 35.5812 45.5587 35.5296C45.4348 35.478 45.3223 35.4024 45.2275 35.3071C45.2018 35.2798 45.1739 35.2546 45.1442 35.2319L39.1049 30.365C38.9375 30.23 38.732 30.1514 38.5176 30.1406C38.3033 30.1297 38.0909 30.187 37.9108 30.3043C37.7308 30.4217 37.5921 30.5931 37.5145 30.7942C37.437 30.9953 37.4246 31.2159 37.479 31.4245L41.3685 46.2798C41.3857 46.3381 41.4067 46.3952 41.4315 46.4507C41.5458 46.6972 41.558 46.9793 41.4653 47.2349C41.3727 47.4905 41.1828 47.6986 40.9374 47.8135C40.692 47.9284 40.4113 47.9406 40.1569 47.8475C39.9026 47.7544 39.6954 47.5636 39.5811 47.3171C39.5688 47.2888 39.5546 47.2614 39.5386 47.235L33.9058 37.4876C33.8161 37.3322 33.6873 37.2033 33.5324 37.1136C33.3775 37.0239 33.2019 36.9768 33.0231 36.9768C32.8443 36.9768 32.6687 37.0239 32.5138 37.1136C32.3589 37.2033 32.2301 37.3322 32.1404 37.4876L26.5076 47.2367C26.4916 47.2631 26.4774 47.2905 26.4651 47.3188C26.3507 47.5653 26.1436 47.7561 25.8892 47.8492C25.6349 47.9423 25.3541 47.9301 25.1087 47.8152C24.8634 47.7003 24.6735 47.4922 24.5808 47.2366C24.4882 46.981 24.5003 46.6989 24.6147 46.4524C24.6394 46.3969 24.6604 46.3398 24.6776 46.2815L28.5672 31.4262C28.6208 31.2184 28.6081 30.9989 28.5309 30.7986C28.4537 30.5984 28.3159 30.4276 28.1369 30.3103C27.9716 30.201 27.7786 30.1417 27.5808 30.1394C27.3482 30.1392 27.1226 30.2188 26.9413 30.365L20.902 35.2319C20.8722 35.2546 20.8443 35.2798 20.8187 35.3071C20.6272 35.4995 20.3675 35.6075 20.0967 35.6075C19.8259 35.6075 19.5662 35.4995 19.3747 35.3071C19.1833 35.1147 19.0757 34.8537 19.0757 34.5817C19.0757 34.3096 19.1833 34.0486 19.3747 33.8562L19.419 33.8101L27.1267 25.0282C27.414 24.701 27.7673 24.439 28.1632 24.2596C28.5591 24.0801 28.9884 23.9874 29.4226 23.9875H36.6235C37.0578 23.9874 37.4871 24.0801 37.883 24.2596C38.2788 24.439 38.6322 24.701 38.9195 25.0282L46.6289 33.8101L46.6731 33.8562C46.7679 33.9516 46.843 34.0647 46.8942 34.1893C46.9454 34.3138 46.9717 34.4473 46.9715 34.582C46.9714 34.7168 46.9448 34.8501 46.8933 34.9746C46.8418 35.099 46.7664 35.212 46.6714 35.3071Z" fill="#B20000"/>
<path d="M33.0231 21.2533C34.0322 21.2533 35.0187 20.9526 35.8577 20.3893C36.6968 19.826 37.3507 19.0253 37.7369 18.0885C38.1231 17.1517 38.2241 16.1209 38.0272 15.1265C37.8304 14.132 37.3444 13.2185 36.6309 12.5016C35.9173 11.7846 35.0082 11.2963 34.0185 11.0985C33.0287 10.9007 32.0029 11.0022 31.0706 11.3902C30.1383 11.7783 29.3414 12.4354 28.7808 13.2784C28.2201 14.1215 27.9209 15.1127 27.9209 16.1266C27.9209 17.4863 28.4585 18.7903 29.4153 19.7517C30.3721 20.7131 31.6699 21.2533 33.0231 21.2533ZM33.0231 13.0507C33.6286 13.0507 34.2204 13.2311 34.7239 13.5691C35.2273 13.907 35.6197 14.3874 35.8514 14.9495C36.0831 15.5116 36.1437 16.13 36.0256 16.7267C35.9074 17.3234 35.6159 17.8715 35.1878 18.3017C34.7596 18.7319 34.2141 19.0248 33.6203 19.1435C33.0265 19.2622 32.411 19.2013 31.8516 18.9685C31.2922 18.7357 30.8141 18.3414 30.4777 17.8356C30.1413 17.3297 29.9618 16.735 29.9618 16.1266C29.9618 15.3108 30.2843 14.5284 30.8584 13.9516C31.4325 13.3747 32.2112 13.0507 33.0231 13.0507ZM48.1391 32.4327L40.4502 23.673C39.9714 23.1274 39.3826 22.6904 38.7228 22.3911C38.063 22.0917 37.3474 21.9369 36.6235 21.9368H29.4226C28.6989 21.9367 27.9833 22.0913 27.3236 22.3903C26.6638 22.6894 26.0749 23.126 25.596 23.6713L17.907 32.4327C17.6214 32.7171 17.3942 33.0552 17.2386 33.4277C17.083 33.8002 17.0019 34.1999 17 34.6039C16.9962 35.4198 17.3151 36.2039 17.8866 36.7835C18.4581 37.3632 19.2354 37.691 20.0474 37.6949C20.8595 37.6987 21.6398 37.3783 22.2167 36.804L25.8069 33.9109L22.7235 45.6765C22.3993 46.4167 22.3783 47.2553 22.6649 48.0109C22.9515 48.7666 23.5227 49.3784 24.2549 49.714C24.9871 50.0496 25.8214 50.082 26.5772 49.8042C27.333 49.5264 27.9495 48.9607 28.2934 48.2296L33.0231 40.0509L37.7528 48.2381C38.0966 48.9693 38.7132 49.535 39.469 49.8128C40.2248 50.0906 41.059 50.0582 41.7912 49.7226C42.5234 49.3869 43.0946 48.7751 43.3813 48.0195C43.6679 47.2639 43.6468 46.4252 43.3227 45.6851L40.2393 33.916L43.8295 36.804C44.4099 37.3584 45.1834 37.6622 45.9841 37.6503C46.7847 37.6384 47.5489 37.3117 48.1127 36.7403C48.6765 36.1689 48.995 35.3982 48.9999 34.5936C49.0049 33.789 48.6959 33.0145 48.1391 32.4362V32.4327ZM46.6714 35.3071C46.5766 35.4024 46.4641 35.478 46.3402 35.5296C46.2163 35.5812 46.0836 35.6078 45.9495 35.6078C45.8154 35.6078 45.6826 35.5812 45.5587 35.5296C45.4348 35.478 45.3223 35.4024 45.2275 35.3071C45.2018 35.2798 45.1739 35.2546 45.1442 35.2319L39.1049 30.365C38.9375 30.23 38.732 30.1514 38.5176 30.1406C38.3033 30.1297 38.0909 30.187 37.9108 30.3043C37.7308 30.4217 37.5921 30.5931 37.5145 30.7942C37.437 30.9953 37.4246 31.2159 37.479 31.4245L41.3685 46.2798C41.3857 46.3381 41.4067 46.3952 41.4315 46.4507C41.5458 46.6972 41.558 46.9793 41.4653 47.2349C41.3727 47.4905 41.1828 47.6986 40.9374 47.8135C40.692 47.9284 40.4113 47.9406 40.1569 47.8475C39.9026 47.7544 39.6954 47.5636 39.5811 47.3171C39.5688 47.2888 39.5546 47.2614 39.5386 47.235L33.9058 37.4876C33.8161 37.3322 33.6873 37.2033 33.5324 37.1136C33.3775 37.0239 33.2019 36.9768 33.0231 36.9768C32.8443 36.9768 32.6687 37.0239 32.5138 37.1136C32.3589 37.2033 32.2301 37.3322 32.1404 37.4876L26.5076 47.2367C26.4916 47.2631 26.4774 47.2905 26.4651 47.3188C26.3507 47.5653 26.1436 47.7561 25.8892 47.8492C25.6349 47.9423 25.3541 47.9301 25.1087 47.8152C24.8634 47.7003 24.6735 47.4922 24.5808 47.2366C24.4882 46.981 24.5003 46.6989 24.6147 46.4524C24.6394 46.3969 24.6604 46.3398 24.6776 46.2815L28.5672 31.4262C28.6208 31.2184 28.6081 30.9989 28.5309 30.7986C28.4537 30.5984 28.3159 30.4276 28.1369 30.3103C27.9716 30.201 27.7786 30.1417 27.5808 30.1394C27.3482 30.1392 27.1226 30.2188 26.9413 30.365L20.902 35.2319C20.8722 35.2546 20.8443 35.2798 20.8187 35.3071C20.6272 35.4995 20.3675 35.6075 20.0967 35.6075C19.8259 35.6075 19.5662 35.4995 19.3747 35.3071C19.1833 35.1147 19.0757 34.8537 19.0757 34.5817C19.0757 34.3096 19.1833 34.0486 19.3747 33.8562L19.419 33.8101L27.1267 25.0282C27.414 24.701 27.7673 24.439 28.1632 24.2596C28.5591 24.0801 28.9884 23.9874 29.4226 23.9875H36.6235C37.0578 23.9874 37.4871 24.0801 37.883 24.2596C38.2788 24.439 38.6322 24.701 38.9195 25.0282L46.6289 33.8101L46.6731 33.8562C46.7679 33.9516 46.843 34.0647 46.8942 34.1893C46.9454 34.3138 46.9717 34.4473 46.9715 34.582C46.9714 34.7168 46.9448 34.8501 46.8933 34.9746C46.8418 35.099 46.7664 35.212 46.6714 35.3071Z" stroke="#B20000" stroke-opacity="0.8" stroke-width="1.6" mask="url(#path-2-outside-1_506_2)"/>
</svg>
