<svg width="81" height="80" viewBox="0 0 81 80" fill="none" xmlns="http://www.w3.org/2000/svg">
<path d="M40.6152 0.763672C46.069 0.763672 51.1715 1.80019 55.9268 3.87012C60.6929 5.94481 64.8343 8.74162 68.3555 12.2598C71.8766 15.778 74.6753 19.9202 76.75 24.6895C78.6906 29.1504 79.722 33.9132 79.8408 38.9824L79.8525 40C79.8496 45.451 78.8142 50.5531 76.75 55.3115C74.6812 60.0804 71.8833 64.2221 68.3564 67.7402C64.829 71.259 60.6866 74.057 55.9258 76.1348C51.1769 78.2073 46.0756 79.2431 40.6162 79.2373H40.6152C31.4534 79.2373 23.3582 76.4591 16.3105 70.9023C9.25975 65.3431 4.68647 58.2457 2.5791 49.5957L2.57617 49.585L2.53418 49.4092C2.34869 48.5344 2.54545 47.7421 3.14551 46.9932C3.79327 46.1848 4.66396 45.71 5.79492 45.5742H5.79785C6.86913 45.4403 7.82083 45.6405 8.6748 46.166C9.46531 46.6526 10.0351 47.3674 10.3799 48.3398L10.4463 48.5381C12.2434 55.2602 15.9482 60.7562 21.5488 65.0127C27.1555 69.2737 33.5164 71.4062 40.6152 71.4062C49.3551 71.4062 56.7877 68.3577 62.8818 62.2666C68.976 56.1754 72.0245 48.7429 72.0215 40C72.0185 31.2574 68.9701 23.8265 62.8818 17.7383C56.7937 11.6501 49.3615 8.59981 40.6162 8.59375H40.6152C35.4572 8.59379 30.6301 9.7908 26.1416 12.1846C21.6589 14.5754 17.8856 17.864 14.8252 22.0439L14.2422 22.8398H22.9551C24.0797 22.8399 24.9996 23.2154 25.749 23.9648C26.4985 24.7143 26.8728 25.6328 26.8701 26.7539C26.8674 27.8762 26.491 28.7978 25.7432 29.5508C24.9974 30.3015 24.0803 30.6752 22.957 30.6699H5.29395C4.16924 30.6699 3.25117 30.2938 2.50488 29.5449C1.80441 28.842 1.43004 27.9903 1.38379 26.9619L1.37891 26.7539V9.09375C1.37897 7.96926 1.75427 7.05089 2.50293 6.30469C3.25278 5.55744 4.17266 5.18143 5.29492 5.17871C6.41549 5.17607 7.33613 5.55097 8.08887 6.30371C8.84153 7.05639 9.21427 7.97494 9.20898 9.0918V16.4844L10.1006 15.3662C13.8064 10.7158 18.3278 7.12082 23.6689 4.57812C29.0112 2.03494 34.6582 0.763709 40.6152 0.763672ZM40.6162 18.4248C41.7368 18.4222 42.6574 18.7971 43.4102 19.5498C44.1626 20.3024 44.5355 21.2203 44.5303 22.3369V38.4414L55.7148 49.626C56.4212 50.3324 56.7831 51.2306 56.7832 52.3623C56.7832 53.4942 56.4214 54.3931 55.7148 55.0996C55.0083 55.8061 54.1094 56.168 52.9775 56.168C51.8459 56.1679 50.9476 55.806 50.2412 55.0996L37.8789 42.7373C37.4826 42.341 37.1894 41.9014 36.9951 41.417C36.798 40.9256 36.7002 40.4174 36.7002 39.8896V22.3398C36.7002 21.2151 37.0763 20.2961 37.8252 19.5498C38.575 18.8028 39.4942 18.4276 40.6162 18.4248Z" fill="#C90D0D" stroke="white"/>
</svg>
