<svg width="24" height="24" viewBox="0 0 24 24" fill="none" xmlns="http://www.w3.org/2000/svg">
<path d="M4.22222 12H2L12 2L22 12H19.7778M4.22222 12V19.7778C4.22222 20.3671 4.45635 20.9324 4.8731 21.3491C5.28984 21.7659 5.85507 22 6.44444 22H17.5556C18.1449 22 18.7102 21.7659 19.1269 21.3491C19.5437 20.9324 19.7778 20.3671 19.7778 19.7778V12" stroke="#B20000" stroke-opacity="0.8" stroke-width="3" stroke-linecap="round" stroke-linejoin="round"/>
<path d="M8.89722 19.2421V14.5869C8.89722 14.1753 9.1152 13.7807 9.5032 13.4896C9.89121 13.1986 10.4175 13.0352 10.9662 13.0352H13.0351C13.5839 13.0352 14.1101 13.1986 14.4981 13.4896C14.8861 13.7807 15.1041 14.1753 15.1041 14.5869V19.2421" stroke="#B20000" stroke-opacity="0.8" stroke-width="3" stroke-linejoin="round"/>
</svg>
