<svg width="22" height="26" viewBox="0 0 22 26" fill="none" xmlns="http://www.w3.org/2000/svg">
<mask id="path-1-outside-1_2139_3730" maskUnits="userSpaceOnUse" x="0" y="0" width="22" height="26" fill="black">
<rect fill="white" width="22" height="26"/>
<path d="M11.0144 7.34939C11.6451 7.34939 12.2617 7.16319 12.7861 6.81435C13.3105 6.46551 13.7192 5.96969 13.9606 5.3896C14.2019 4.8095 14.2651 4.17117 14.142 3.55534C14.019 2.93951 13.7153 2.37384 13.2693 1.92985C12.8233 1.48586 12.2551 1.1835 11.6365 1.061C11.018 0.938506 10.3768 1.00138 9.7941 1.24166C9.21141 1.48195 8.71338 1.88885 8.36298 2.41093C8.01259 2.933 7.82556 3.5468 7.82556 4.17469C7.82556 5.01667 8.16153 5.82417 8.75956 6.41954C9.35759 7.01491 10.1687 7.34939 11.0144 7.34939ZM11.0144 2.26988C11.3928 2.26988 11.7628 2.38159 12.0774 2.5909C12.392 2.8002 12.6373 3.09769 12.7821 3.44575C12.9269 3.79381 12.9648 4.17681 12.891 4.5463C12.8172 4.9158 12.6349 5.25521 12.3673 5.5216C12.0998 5.78799 11.7588 5.96941 11.3877 6.04291C11.0165 6.11641 10.6318 6.07868 10.2822 5.93451C9.93262 5.79034 9.6338 5.5462 9.42356 5.23295C9.21332 4.91971 9.10111 4.55143 9.10111 4.17469C9.10111 3.6695 9.30269 3.18501 9.6615 2.82779C10.0203 2.47056 10.507 2.26988 11.0144 2.26988ZM20.462 14.2723L15.6563 8.84784C15.3571 8.50997 14.9891 8.23936 14.5768 8.05399C14.1644 7.86861 13.7171 7.77272 13.2647 7.77268H8.76415C8.31179 7.77259 7.86458 7.86832 7.45223 8.0535C7.03987 8.23869 6.67182 8.50911 6.3725 8.84678L1.56689 14.2723C1.38835 14.4484 1.2464 14.6578 1.14914 14.8885C1.05188 15.1191 1.00121 15.3666 1.00002 15.6168C0.997629 16.1221 1.19695 16.6076 1.55413 16.9666C1.91132 17.3256 2.39711 17.5286 2.90463 17.5309C3.41216 17.5333 3.89985 17.3349 4.26041 16.9793L6.50431 15.1877L4.57717 22.4736C4.37458 22.932 4.36143 23.4513 4.54056 23.9192C4.7197 24.3871 5.07671 24.766 5.53433 24.9738C5.99195 25.1817 6.51338 25.2017 6.98575 25.0297C7.45813 24.8577 7.84346 24.5074 8.05835 24.0546L11.0144 18.9899L13.9705 24.0599C14.1854 24.5127 14.5707 24.863 15.0431 25.035C15.5155 25.207 16.0369 25.187 16.4945 24.9791C16.9521 24.7713 17.3092 24.3924 17.4883 23.9245C17.6674 23.4566 17.6543 22.9373 17.4517 22.4789L15.5245 15.1909L17.7684 16.9793C18.1312 17.3226 18.6146 17.5107 19.115 17.5033C19.6155 17.4959 20.0931 17.2936 20.4454 16.9398C20.7978 16.5859 20.9969 16.1087 21 15.6105C21.0031 15.1122 20.8099 14.6326 20.462 14.2744V14.2723ZM19.5446 16.0523C19.4854 16.1113 19.4151 16.1581 19.3376 16.1901C19.2602 16.222 19.1772 16.2385 19.0934 16.2385C19.0096 16.2385 18.9266 16.222 18.8492 16.1901C18.7718 16.1581 18.7014 16.1113 18.6422 16.0523C18.6261 16.0354 18.6087 16.0198 18.5901 16.0057L14.8155 12.9919C14.7109 12.9083 14.5825 12.8596 14.4485 12.8529C14.3145 12.8461 14.1818 12.8816 14.0693 12.9543C13.9567 13.027 13.8701 13.1331 13.8216 13.2577C13.7731 13.3822 13.7654 13.5188 13.7994 13.648L16.2303 22.8472C16.2411 22.8833 16.2542 22.9186 16.2697 22.953C16.3411 23.1057 16.3487 23.2804 16.2908 23.4386C16.2329 23.5969 16.1142 23.7258 15.9609 23.7969C15.8075 23.8681 15.6321 23.8757 15.4731 23.818C15.3141 23.7604 15.1846 23.6422 15.1132 23.4895C15.1055 23.472 15.0966 23.455 15.0866 23.4387L11.5661 17.4026C11.51 17.3064 11.4296 17.2265 11.3327 17.171C11.2359 17.1155 11.1262 17.0862 11.0144 17.0862C10.9027 17.0862 10.7929 17.1155 10.6961 17.171C10.5993 17.2265 10.5188 17.3064 10.4628 17.4026L6.94225 23.4398C6.93225 23.4561 6.92337 23.4731 6.91567 23.4906C6.84421 23.6433 6.71475 23.7614 6.55577 23.8191C6.3968 23.8767 6.22133 23.8691 6.06797 23.798C5.91461 23.7268 5.79592 23.598 5.73801 23.4397C5.6801 23.2814 5.68771 23.1067 5.75918 22.9541C5.77464 22.9197 5.78778 22.8843 5.79851 22.8482L8.22949 13.649C8.26298 13.5203 8.25504 13.3844 8.20679 13.2604C8.15854 13.1364 8.07241 13.0307 7.96056 12.958C7.85728 12.8903 7.73663 12.8536 7.61297 12.8522C7.46765 12.8521 7.32665 12.9013 7.2133 12.9919L3.43875 16.0057C3.42013 16.0198 3.40271 16.0354 3.38667 16.0523C3.26699 16.1714 3.10468 16.2383 2.93544 16.2383C2.7662 16.2383 2.60389 16.1714 2.48422 16.0523C2.36455 15.9331 2.29731 15.7715 2.29731 15.6031C2.29731 15.4346 2.36455 15.273 2.48422 15.1538L2.51185 15.1253L7.32916 9.68702C7.50875 9.48441 7.72959 9.32216 7.977 9.21105C8.22441 9.09994 8.49273 9.0425 8.76415 9.04255H13.2647C13.5361 9.0425 13.8044 9.09994 14.0519 9.21105C14.2993 9.32216 14.5201 9.48441 14.6997 9.68702L19.5181 15.1253L19.5457 15.1538C19.6049 15.2129 19.6519 15.283 19.6839 15.3601C19.7159 15.4372 19.7323 15.5198 19.7322 15.6033C19.7321 15.6867 19.7155 15.7693 19.6833 15.8464C19.6511 15.9234 19.604 15.9934 19.5446 16.0523Z"/>
</mask>
<path d="M11.0144 7.34939C11.6451 7.34939 12.2617 7.16319 12.7861 6.81435C13.3105 6.46551 13.7192 5.96969 13.9606 5.3896C14.2019 4.8095 14.2651 4.17117 14.142 3.55534C14.019 2.93951 13.7153 2.37384 13.2693 1.92985C12.8233 1.48586 12.2551 1.1835 11.6365 1.061C11.018 0.938506 10.3768 1.00138 9.7941 1.24166C9.21141 1.48195 8.71338 1.88885 8.36298 2.41093C8.01259 2.933 7.82556 3.5468 7.82556 4.17469C7.82556 5.01667 8.16153 5.82417 8.75956 6.41954C9.35759 7.01491 10.1687 7.34939 11.0144 7.34939ZM11.0144 2.26988C11.3928 2.26988 11.7628 2.38159 12.0774 2.5909C12.392 2.8002 12.6373 3.09769 12.7821 3.44575C12.9269 3.79381 12.9648 4.17681 12.891 4.5463C12.8172 4.9158 12.6349 5.25521 12.3673 5.5216C12.0998 5.78799 11.7588 5.96941 11.3877 6.04291C11.0165 6.11641 10.6318 6.07868 10.2822 5.93451C9.93262 5.79034 9.6338 5.5462 9.42356 5.23295C9.21332 4.91971 9.10111 4.55143 9.10111 4.17469C9.10111 3.6695 9.30269 3.18501 9.6615 2.82779C10.0203 2.47056 10.507 2.26988 11.0144 2.26988ZM20.462 14.2723L15.6563 8.84784C15.3571 8.50997 14.9891 8.23936 14.5768 8.05399C14.1644 7.86861 13.7171 7.77272 13.2647 7.77268H8.76415C8.31179 7.77259 7.86458 7.86832 7.45223 8.0535C7.03987 8.23869 6.67182 8.50911 6.3725 8.84678L1.56689 14.2723C1.38835 14.4484 1.2464 14.6578 1.14914 14.8885C1.05188 15.1191 1.00121 15.3666 1.00002 15.6168C0.997629 16.1221 1.19695 16.6076 1.55413 16.9666C1.91132 17.3256 2.39711 17.5286 2.90463 17.5309C3.41216 17.5333 3.89985 17.3349 4.26041 16.9793L6.50431 15.1877L4.57717 22.4736C4.37458 22.932 4.36143 23.4513 4.54056 23.9192C4.7197 24.3871 5.07671 24.766 5.53433 24.9738C5.99195 25.1817 6.51338 25.2017 6.98575 25.0297C7.45813 24.8577 7.84346 24.5074 8.05835 24.0546L11.0144 18.9899L13.9705 24.0599C14.1854 24.5127 14.5707 24.863 15.0431 25.035C15.5155 25.207 16.0369 25.187 16.4945 24.9791C16.9521 24.7713 17.3092 24.3924 17.4883 23.9245C17.6674 23.4566 17.6543 22.9373 17.4517 22.4789L15.5245 15.1909L17.7684 16.9793C18.1312 17.3226 18.6146 17.5107 19.115 17.5033C19.6155 17.4959 20.0931 17.2936 20.4454 16.9398C20.7978 16.5859 20.9969 16.1087 21 15.6105C21.0031 15.1122 20.8099 14.6326 20.462 14.2744V14.2723ZM19.5446 16.0523C19.4854 16.1113 19.4151 16.1581 19.3376 16.1901C19.2602 16.222 19.1772 16.2385 19.0934 16.2385C19.0096 16.2385 18.9266 16.222 18.8492 16.1901C18.7718 16.1581 18.7014 16.1113 18.6422 16.0523C18.6261 16.0354 18.6087 16.0198 18.5901 16.0057L14.8155 12.9919C14.7109 12.9083 14.5825 12.8596 14.4485 12.8529C14.3145 12.8461 14.1818 12.8816 14.0693 12.9543C13.9567 13.027 13.8701 13.1331 13.8216 13.2577C13.7731 13.3822 13.7654 13.5188 13.7994 13.648L16.2303 22.8472C16.2411 22.8833 16.2542 22.9186 16.2697 22.953C16.3411 23.1057 16.3487 23.2804 16.2908 23.4386C16.2329 23.5969 16.1142 23.7258 15.9609 23.7969C15.8075 23.8681 15.6321 23.8757 15.4731 23.818C15.3141 23.7604 15.1846 23.6422 15.1132 23.4895C15.1055 23.472 15.0966 23.455 15.0866 23.4387L11.5661 17.4026C11.51 17.3064 11.4296 17.2265 11.3327 17.171C11.2359 17.1155 11.1262 17.0862 11.0144 17.0862C10.9027 17.0862 10.7929 17.1155 10.6961 17.171C10.5993 17.2265 10.5188 17.3064 10.4628 17.4026L6.94225 23.4398C6.93225 23.4561 6.92337 23.4731 6.91567 23.4906C6.84421 23.6433 6.71475 23.7614 6.55577 23.8191C6.3968 23.8767 6.22133 23.8691 6.06797 23.798C5.91461 23.7268 5.79592 23.598 5.73801 23.4397C5.6801 23.2814 5.68771 23.1067 5.75918 22.9541C5.77464 22.9197 5.78778 22.8843 5.79851 22.8482L8.22949 13.649C8.26298 13.5203 8.25504 13.3844 8.20679 13.2604C8.15854 13.1364 8.07241 13.0307 7.96056 12.958C7.85728 12.8903 7.73663 12.8536 7.61297 12.8522C7.46765 12.8521 7.32665 12.9013 7.2133 12.9919L3.43875 16.0057C3.42013 16.0198 3.40271 16.0354 3.38667 16.0523C3.26699 16.1714 3.10468 16.2383 2.93544 16.2383C2.7662 16.2383 2.60389 16.1714 2.48422 16.0523C2.36455 15.9331 2.29731 15.7715 2.29731 15.6031C2.29731 15.4346 2.36455 15.273 2.48422 15.1538L2.51185 15.1253L7.32916 9.68702C7.50875 9.48441 7.72959 9.32216 7.977 9.21105C8.22441 9.09994 8.49273 9.0425 8.76415 9.04255H13.2647C13.5361 9.0425 13.8044 9.09994 14.0519 9.21105C14.2993 9.32216 14.5201 9.48441 14.6997 9.68702L19.5181 15.1253L19.5457 15.1538C19.6049 15.2129 19.6519 15.283 19.6839 15.3601C19.7159 15.4372 19.7323 15.5198 19.7322 15.6033C19.7321 15.6867 19.7155 15.7693 19.6833 15.8464C19.6511 15.9234 19.604 15.9934 19.5446 16.0523Z" fill="#B20000" fill-opacity="0.8"/>
<path d="M11.0144 7.34939C11.6451 7.34939 12.2617 7.16319 12.7861 6.81435C13.3105 6.46551 13.7192 5.96969 13.9606 5.3896C14.2019 4.8095 14.2651 4.17117 14.142 3.55534C14.019 2.93951 13.7153 2.37384 13.2693 1.92985C12.8233 1.48586 12.2551 1.1835 11.6365 1.061C11.018 0.938506 10.3768 1.00138 9.7941 1.24166C9.21141 1.48195 8.71338 1.88885 8.36298 2.41093C8.01259 2.933 7.82556 3.5468 7.82556 4.17469C7.82556 5.01667 8.16153 5.82417 8.75956 6.41954C9.35759 7.01491 10.1687 7.34939 11.0144 7.34939ZM11.0144 2.26988C11.3928 2.26988 11.7628 2.38159 12.0774 2.5909C12.392 2.8002 12.6373 3.09769 12.7821 3.44575C12.9269 3.79381 12.9648 4.17681 12.891 4.5463C12.8172 4.9158 12.6349 5.25521 12.3673 5.5216C12.0998 5.78799 11.7588 5.96941 11.3877 6.04291C11.0165 6.11641 10.6318 6.07868 10.2822 5.93451C9.93262 5.79034 9.6338 5.5462 9.42356 5.23295C9.21332 4.91971 9.10111 4.55143 9.10111 4.17469C9.10111 3.6695 9.30269 3.18501 9.6615 2.82779C10.0203 2.47056 10.507 2.26988 11.0144 2.26988ZM20.462 14.2723L15.6563 8.84784C15.3571 8.50997 14.9891 8.23936 14.5768 8.05399C14.1644 7.86861 13.7171 7.77272 13.2647 7.77268H8.76415C8.31179 7.77259 7.86458 7.86832 7.45223 8.0535C7.03987 8.23869 6.67182 8.50911 6.3725 8.84678L1.56689 14.2723C1.38835 14.4484 1.2464 14.6578 1.14914 14.8885C1.05188 15.1191 1.00121 15.3666 1.00002 15.6168C0.997629 16.1221 1.19695 16.6076 1.55413 16.9666C1.91132 17.3256 2.39711 17.5286 2.90463 17.5309C3.41216 17.5333 3.89985 17.3349 4.26041 16.9793L6.50431 15.1877L4.57717 22.4736C4.37458 22.932 4.36143 23.4513 4.54056 23.9192C4.7197 24.3871 5.07671 24.766 5.53433 24.9738C5.99195 25.1817 6.51338 25.2017 6.98575 25.0297C7.45813 24.8577 7.84346 24.5074 8.05835 24.0546L11.0144 18.9899L13.9705 24.0599C14.1854 24.5127 14.5707 24.863 15.0431 25.035C15.5155 25.207 16.0369 25.187 16.4945 24.9791C16.9521 24.7713 17.3092 24.3924 17.4883 23.9245C17.6674 23.4566 17.6543 22.9373 17.4517 22.4789L15.5245 15.1909L17.7684 16.9793C18.1312 17.3226 18.6146 17.5107 19.115 17.5033C19.6155 17.4959 20.0931 17.2936 20.4454 16.9398C20.7978 16.5859 20.9969 16.1087 21 15.6105C21.0031 15.1122 20.8099 14.6326 20.462 14.2744V14.2723ZM19.5446 16.0523C19.4854 16.1113 19.4151 16.1581 19.3376 16.1901C19.2602 16.222 19.1772 16.2385 19.0934 16.2385C19.0096 16.2385 18.9266 16.222 18.8492 16.1901C18.7718 16.1581 18.7014 16.1113 18.6422 16.0523C18.6261 16.0354 18.6087 16.0198 18.5901 16.0057L14.8155 12.9919C14.7109 12.9083 14.5825 12.8596 14.4485 12.8529C14.3145 12.8461 14.1818 12.8816 14.0693 12.9543C13.9567 13.027 13.8701 13.1331 13.8216 13.2577C13.7731 13.3822 13.7654 13.5188 13.7994 13.648L16.2303 22.8472C16.2411 22.8833 16.2542 22.9186 16.2697 22.953C16.3411 23.1057 16.3487 23.2804 16.2908 23.4386C16.2329 23.5969 16.1142 23.7258 15.9609 23.7969C15.8075 23.8681 15.6321 23.8757 15.4731 23.818C15.3141 23.7604 15.1846 23.6422 15.1132 23.4895C15.1055 23.472 15.0966 23.455 15.0866 23.4387L11.5661 17.4026C11.51 17.3064 11.4296 17.2265 11.3327 17.171C11.2359 17.1155 11.1262 17.0862 11.0144 17.0862C10.9027 17.0862 10.7929 17.1155 10.6961 17.171C10.5993 17.2265 10.5188 17.3064 10.4628 17.4026L6.94225 23.4398C6.93225 23.4561 6.92337 23.4731 6.91567 23.4906C6.84421 23.6433 6.71475 23.7614 6.55577 23.8191C6.3968 23.8767 6.22133 23.8691 6.06797 23.798C5.91461 23.7268 5.79592 23.598 5.73801 23.4397C5.6801 23.2814 5.68771 23.1067 5.75918 22.9541C5.77464 22.9197 5.78778 22.8843 5.79851 22.8482L8.22949 13.649C8.26298 13.5203 8.25504 13.3844 8.20679 13.2604C8.15854 13.1364 8.07241 13.0307 7.96056 12.958C7.85728 12.8903 7.73663 12.8536 7.61297 12.8522C7.46765 12.8521 7.32665 12.9013 7.2133 12.9919L3.43875 16.0057C3.42013 16.0198 3.40271 16.0354 3.38667 16.0523C3.26699 16.1714 3.10468 16.2383 2.93544 16.2383C2.7662 16.2383 2.60389 16.1714 2.48422 16.0523C2.36455 15.9331 2.29731 15.7715 2.29731 15.6031C2.29731 15.4346 2.36455 15.273 2.48422 15.1538L2.51185 15.1253L7.32916 9.68702C7.50875 9.48441 7.72959 9.32216 7.977 9.21105C8.22441 9.09994 8.49273 9.0425 8.76415 9.04255H13.2647C13.5361 9.0425 13.8044 9.09994 14.0519 9.21105C14.2993 9.32216 14.5201 9.48441 14.6997 9.68702L19.5181 15.1253L19.5457 15.1538C19.6049 15.2129 19.6519 15.283 19.6839 15.3601C19.7159 15.4372 19.7323 15.5198 19.7322 15.6033C19.7321 15.6867 19.7155 15.7693 19.6833 15.8464C19.6511 15.9234 19.604 15.9934 19.5446 16.0523Z" stroke="#B20000" stroke-opacity="0.8" stroke-width="1.6" mask="url(#path-1-outside-1_2139_3730)"/>
</svg>
