<svg width="34" height="25" viewBox="0 0 34 25" fill="none" xmlns="http://www.w3.org/2000/svg">
<path d="M1.90354 8.60471C1.68489 8.31164 1.5 7.88186 1.5 7.88186V7.11893C1.5 7.11893 1.68489 6.68836 1.90354 6.39607C3.10048 4.78929 5.72428 2 9.5 2C13.2757 2 15.8995 4.78929 17.0965 6.39529C17.3151 6.68836 17.5 7.11814 17.5 7.11814V7.88107C17.5 7.88107 17.3151 8.31164 17.0965 8.60393C15.8995 10.2107 13.2757 13 9.5 13C5.72428 13 3.10048 10.2107 1.90354 8.60471Z" stroke="#C90D0D" stroke-width="2.5" stroke-linecap="round" stroke-linejoin="round"/>
<path d="M9.5 9C10.0304 9 10.5391 8.84196 10.9142 8.56066C11.2893 8.27936 11.5 7.89782 11.5 7.5C11.5 7.10218 11.2893 6.72064 10.9142 6.43934C10.5391 6.15804 10.0304 6 9.5 6C8.96957 6 8.46086 6.15804 8.08579 6.43934C7.71071 6.72064 7.5 7.10218 7.5 7.5C7.5 7.89782 7.71071 8.27936 8.08579 8.56066C8.46086 8.84196 8.96957 9 9.5 9Z" fill="#C90D0D" stroke="#C90D0D" stroke-width="2" stroke-linecap="round" stroke-linejoin="round"/>
<path d="M25.4404 7.01855C27.1943 3.86164 31.9996 5.1066 32 8.71777V20C32 21.933 30.433 23.5 28.5 23.5H17.2178C13.6066 23.4996 12.3616 18.6943 15.5186 16.9404L21.7725 13.4658C21.8537 13.4206 21.9206 13.3537 21.9658 13.2725L25.4404 7.01855Z" stroke="#C90D0D" stroke-width="3"/>
</svg>
