<svg width="48" height="53" viewBox="0 0 48 53" fill="none" xmlns="http://www.w3.org/2000/svg">
<path d="M39.375 28.8785L47.25 36.7535V47.2535C47.25 48.6459 46.6969 49.9813 45.7123 50.9658C44.7277 51.9504 43.3924 52.5035 42 52.5035H5.25C3.85761 52.5035 2.52226 51.9504 1.53769 50.9658C0.553123 49.9813 0 48.6459 0 47.2535V36.7535L7.875 28.8785H10.0538L15.3038 34.1285H9.9225L5.25 39.3785H42L37.3537 34.1285H32.34L37.59 28.8785H39.375ZM42 47.2535V44.6285H5.25V47.2535H42ZM21.8925 34.1285L8.89875 21.1873C8.6554 20.9444 8.46234 20.656 8.33061 20.3384C8.19889 20.0209 8.13108 19.6804 8.13108 19.3366C8.13108 18.9929 8.19889 18.6524 8.33061 18.3349C8.46234 18.0173 8.6554 17.7289 8.89875 17.486L25.62 0.764773C25.8603 0.520386 26.1473 0.326767 26.4639 0.195406C26.7805 0.0640444 27.1203 -0.002383 27.4631 6.52935e-05C27.8058 0.00251359 28.1446 0.0737877 28.4593 0.209658C28.774 0.345529 29.0582 0.543227 29.295 0.791023L42.2887 13.7848C43.3125 14.8085 43.3125 16.4623 42.2887 17.486L25.5938 34.1285C25.3578 34.3838 25.0716 34.5875 24.7531 34.7268C24.4346 34.8662 24.0907 34.9381 23.7431 34.9381C23.3955 34.9381 23.0516 34.8662 22.7331 34.7268C22.4147 34.5875 22.1284 34.3838 21.8925 34.1285ZM27.4575 6.32977L14.4375 19.3235L23.7563 28.616L36.75 15.6223L27.4575 6.32977Z" fill="#B20000"/>
</svg>
