<svg width="69" height="47" viewBox="0 0 69 47" fill="none" xmlns="http://www.w3.org/2000/svg">
<path d="M5.67569 27.4167C4.84606 26.3776 4.14453 24.8539 4.14453 24.8539V22.1489C4.14453 22.1489 4.84606 20.6224 5.67569 19.5861C10.2173 13.8893 20.1729 4 34.4994 4C48.8258 4 58.7814 13.8893 63.323 19.5833C64.1527 20.6224 64.8542 22.1461 64.8542 22.1461V24.8511C64.8542 24.8511 64.1527 26.3776 63.323 27.4139C58.7814 33.1107 48.8258 43 34.4994 43C20.1729 43 10.2173 33.1107 5.67569 27.4167Z" stroke="#B20000" stroke-width="6.5" stroke-linecap="round" stroke-linejoin="round"/>
<path d="M34.5 33C37.0196 33 39.4359 31.9991 41.2175 30.2175C42.9991 28.4359 44 26.0196 44 23.5C44 20.9804 42.9991 18.5641 41.2175 16.7825C39.4359 15.0009 37.0196 14 34.5 14C31.9804 14 29.5641 15.0009 27.7825 16.7825C26.0009 18.5641 25 20.9804 25 23.5C25 26.0196 26.0009 28.4359 27.7825 30.2175C29.5641 31.9991 31.9804 33 34.5 33Z" stroke="#B20000" stroke-width="6.5" stroke-linecap="round" stroke-linejoin="round"/>
</svg>
