<svg width="31" height="25" viewBox="0 0 31 25" fill="none" xmlns="http://www.w3.org/2000/svg">
<path d="M10.3496 11.167C10.3497 12.3293 10.8615 13.3149 11.8643 14.1172C12.8662 14.9187 14.0812 15.3164 15.5 15.3164C16.9188 15.3164 18.1338 14.9187 19.1357 14.1172C20.1385 13.3149 20.6503 12.3293 20.6504 11.167V3.0166H10.3496V11.167ZM3.68359 7.16699C3.68367 8.05149 4.00507 8.84755 4.63867 9.55078C5.27102 10.2526 6.10201 10.7493 7.125 11.0439L7.31641 11.0996V5.68359H3.68359V7.16699ZM23.6836 11.0996L23.875 11.0439C24.898 10.7484 25.729 10.2515 26.3613 9.5498C26.995 8.84658 27.3163 8.05069 27.3164 7.16699V5.68359H23.6836V11.0996ZM13.9834 17.5742L13.8594 17.5527C12.5158 17.3114 11.3195 16.8564 10.2686 16.1904C9.22046 15.5262 8.45536 14.6957 7.96777 13.7002L7.93066 13.625L7.84766 13.6172C5.79254 13.4199 4.08076 12.7039 2.70508 11.4727C1.33072 10.2425 0.651588 8.80884 0.650391 7.16699V5.83301C0.650485 5.15235 0.950319 4.56602 1.57324 4.06836C2.19736 3.56992 2.94819 3.31735 3.83301 3.31641H7.31641V3.16699C7.31641 2.48607 7.61697 1.89917 8.24023 1.40137C8.78649 0.965103 9.42959 0.717663 10.1748 0.662109L10.5 0.650391H20.5C21.3861 0.650391 22.1376 0.90205 22.7617 1.40137C23.3847 1.89993 23.6845 2.4864 23.6836 3.16602L23.6826 3.31641H27.167C28.0528 3.31647 28.8037 3.56831 29.4277 4.06738C30.0511 4.56609 30.3506 5.15311 30.3496 5.83301V7.16699C30.3495 8.80789 29.6704 10.2415 28.2949 11.4727C26.9181 12.7048 25.2063 13.4208 23.1523 13.6172L23.0684 13.625L23.0322 13.7012C22.5458 14.6956 21.7813 15.5254 20.7334 16.1904C19.6825 16.8572 18.4853 17.3123 17.1406 17.5527L17.0166 17.5742V21.9834H22.167C22.6105 21.9835 22.9723 22.1025 23.2617 22.334C23.5495 22.5642 23.6845 22.8393 23.6836 23.166C23.6826 23.4934 23.5459 23.7697 23.2588 24.001C22.9708 24.2328 22.6101 24.3513 22.167 24.3496H8.83301C8.38954 24.3496 8.0284 24.2304 7.74023 23.999C7.45339 23.7687 7.31737 23.4933 7.31641 23.166C7.3155 22.8396 7.45142 22.5653 7.74023 22.335C8.03094 22.1032 8.39197 21.9835 8.83301 21.9834H13.9834V17.5742Z" fill="#C90D0D" stroke="#C90D0D" stroke-width="0.3"/>
</svg>
